<svg width="45" height="37" viewBox="0 0 45 37" fill="none" xmlns="http://www.w3.org/2000/svg">
<path d="M8.95754 12.0995L8.00294 10.3602C6.99734 10.9124 6.01439 11.5317 5.08064 12.2013L6.23729 13.8132C7.10639 13.19 8.02139 12.6132 8.95754 12.0995Z" fill="#6925A6"/>
<path d="M14.9117 9.70848L14.3994 7.79163C13.2911 8.08788 12.1887 8.45523 11.1232 8.88318L11.8626 10.7243C12.8548 10.3257 13.8803 9.98418 14.9117 9.70848Z" fill="#6925A6"/>
<path d="M34.5804 9.85618C33.5553 9.34393 32.4867 8.88838 31.4025 8.50183L30.7365 10.3707C31.7454 10.7301 32.7399 11.154 33.6936 11.6308L34.5804 9.85618Z" fill="#6925A6"/>
<path d="M42.8196 16.0682L41.3587 17.4097C42.0822 18.1973 42.7647 19.0372 43.3879 19.9045L45 18.7478C44.3307 17.8154 43.5973 16.9136 42.8196 16.0682Z" fill="#6925A6"/>
<path d="M36.477 13.2408C37.3668 13.831 38.2311 14.4828 39.0442 15.1771L40.3324 13.6683C39.4585 12.9217 38.53 12.2214 37.5727 11.5872L36.477 13.2408Z" fill="#6925A6"/>
<path d="M0 16.8661L1.5081 18.1551C2.20245 17.3427 2.9541 16.5643 3.7413 15.8418L2.39985 14.3806C1.5537 15.1566 0.74655 15.9931 0 16.8661Z" fill="#6925A6"/>
<path d="M15.9429 10.6213L16.9395 10.6219L18.1487 8.7885L22.0351 8.81565L20.2962 14.8101C20.2962 14.985 20.4384 15.1275 20.6133 15.1275H22.2123L25.5522 8.93325L28.6177 9.0351C29.4903 9.0351 30.1963 8.36685 30.1963 7.54245C30.1969 6.7188 29.4897 6.05055 28.6185 6.05055L25.5301 6.15375L22.2126 0.000300121L20.6129 0C20.438 0.0003 20.2957 0.1428 20.2957 0.3177L22.0227 6.27045L18.1272 6.3042L16.9388 4.50615L15.9422 4.50645C15.8096 4.50645 15.7025 4.61325 15.7025 4.74555V10.3828C15.7032 10.5145 15.8106 10.6221 15.9429 10.6213Z" fill="#6925A6"/>
<path d="M25.6965 18.1851C24.3979 17.8892 23.071 17.739 21.7504 17.739C13.4463 17.739 6.3558 23.4026 4.5081 31.5111C4.15395 33.0653 4.0161 34.6341 4.07865 36.1853H6.0642V36.1848C6.00045 34.7819 6.12105 33.3614 6.44145 31.9547C7.0908 32.123 9.99375 32.9285 9.9015 33.8625C9.8238 34.6458 9.5718 35.538 9.7815 36.1847H11.6064C11.8571 36.0021 12.0987 35.9151 12.3351 36.1638C12.3414 36.1707 12.3497 36.1778 12.3563 36.1847H26.7669C23.3751 34.0242 22.8952 30.2075 22.8952 30.2075C22.6558 30.1034 23.3406 27.3923 22.2742 27.0666C21.2062 26.7413 20.533 27.0021 19.0206 26.3273C17.5062 25.6524 18.0732 24.7094 18.3219 22.4589C18.4281 21.4986 18.6724 20.639 18.9838 19.9635C19.8835 19.8051 20.8077 19.7225 21.7501 19.7225C22.9219 19.7225 24.1018 19.8557 25.2561 20.1186C29.3499 21.051 32.8354 23.5221 35.0706 27.0756C36.7555 29.7552 37.5763 32.8082 37.4794 35.9028C37.3498 35.997 37.2106 36.0909 37.0651 36.1853H39.4512C39.6085 32.6238 38.688 29.1017 36.7497 26.0196C34.2331 22.0173 30.3075 19.2353 25.6965 18.1851Z" fill="#6925A6"/>
</svg>
