<svg width="250" height="243" viewBox="0 0 250 243" fill="none" xmlns="http://www.w3.org/2000/svg">
<ellipse cx="125" cy="120.968" rx="125" ry="120.968" fill="#6925A6" fill-opacity="0.6"/>
<path d="M42 180.968C48.5 177.581 85 169.839 85 169.839H145C145 169.839 184.5 175.161 190 180.968C195.5 186.774 216.5 203.226 216.5 203.226C197 224.516 164 243.871 121.5 241.452C83 239.26 51.5 225.484 28 196.452C28 196.452 35.5 184.355 42 180.968Z" fill="#6925A6"/>
<path d="M76.9305 109.747C70.1091 96.6961 69.7523 74.0015 80.1795 62.0698C90.6067 50.138 110.126 42.2577 128.059 39.2092C131.015 38.5129 134.168 38.5442 137.101 39.2989C138.54 39.7187 139.724 40.5545 140.415 41.6379C141.106 42.7213 141.252 43.9716 140.824 45.1369C144.305 43.2016 148.168 41.7361 152.254 40.7999C154.306 40.3471 156.466 40.2996 158.546 40.6614C160.626 41.0233 162.562 41.7835 164.184 42.8754C164.953 43.4463 165.571 44.1322 166.002 44.8932C166.434 45.6543 166.67 46.4755 166.698 47.3093C166.726 48.1431 166.544 48.973 166.164 49.751C165.784 50.5289 165.212 51.2395 164.482 51.8416C167.001 51.1141 169.733 50.9853 172.343 51.4709C174.953 51.9565 177.326 53.0353 179.171 54.5746C181.015 56.1139 182.25 58.0463 182.724 60.1339C183.197 62.2216 182.889 64.3732 181.836 66.3238C179.389 70.3273 175.988 73.9197 171.82 76.9039C170.157 78.0778 168.927 79.5866 168.262 81.2696C167.596 82.9526 167.52 84.7468 168.042 86.4613" fill="#263238"/>
<path d="M80.3683 90.0941L83.369 170.083C83.4907 173.307 84.4369 176.442 86.1503 179.298C87.8636 182.155 90.3083 184.674 93.336 186.701C96.3637 188.729 99.9113 190.223 103.763 191.094C107.616 191.965 111.692 192.193 115.745 191.766V191.766C123.432 190.953 130.587 187.832 135.73 183.051C140.873 178.269 143.609 172.193 143.372 166.081C143.137 160.061 142.957 155.04 142.985 154.416C142.985 154.416 168.588 150.807 169.685 130.529C170.213 120.729 169.241 100.564 168.099 82.3396C167.499 72.9005 162.435 64.1767 153.916 57.9039C145.396 51.6311 134.045 48.2691 122.12 48.4867L119.665 48.5304C93.1099 50.2453 78.9092 69.0854 80.3683 90.0941Z" fill="#FFBE9D"/>
<path d="M137.951 155.515C126.202 154.689 115.03 151.115 105.859 145.247C105.859 145.247 110.921 157.816 136.502 158.172L137.951 155.515Z" fill="#EB996E"/>
<path d="M156.284 95.2656C156.192 96.0146 155.734 96.7056 155.007 97.1908C154.279 97.6761 153.341 97.9171 152.392 97.8625C151.927 97.8523 151.469 97.7686 151.045 97.6161C150.621 97.4637 150.24 97.2456 149.924 96.9748C149.608 96.704 149.364 96.3859 149.206 96.0393C149.049 95.6927 148.98 95.3246 149.005 94.9567C149.098 94.2084 149.556 93.5181 150.281 93.0326C151.007 92.547 151.944 92.3045 152.892 92.3565C153.358 92.3666 153.817 92.4505 154.241 92.6031C154.666 92.7557 155.047 92.974 155.363 93.2451C155.68 93.5163 155.924 93.8347 156.082 94.1817C156.24 94.5287 156.309 94.8973 156.284 95.2656Z" fill="#263238"/>
<path d="M160.556 91.5296C160.07 91.8825 157.468 90.1513 153.554 89.9912C149.641 89.8311 146.626 91.2582 146.237 90.8625C146.045 90.6845 146.569 90.0242 147.887 89.3602C149.669 88.5015 151.731 88.095 153.79 88.1965C155.826 88.2766 157.763 88.87 159.319 89.8902C160.455 90.673 160.793 91.37 160.556 91.5296Z" fill="#263238"/>
<path d="M120.284 93.2029C120.191 93.9517 119.732 94.6421 119.006 95.1272C118.279 95.6123 117.341 95.8536 116.392 95.7998C115.927 95.7897 115.469 95.706 115.045 95.5535C114.621 95.4011 114.24 95.183 113.924 94.9122C113.608 94.6414 113.364 94.3233 113.206 93.9767C113.049 93.6301 112.98 93.262 113.005 92.8941C113.099 92.1457 113.558 91.4558 114.284 90.9708C115.011 90.4859 115.948 90.2443 116.896 90.2972C117.362 90.3078 117.82 90.3918 118.243 90.5444C118.667 90.697 119.048 90.9151 119.363 91.1858C119.679 91.4565 119.923 91.7744 120.081 92.1208C120.239 92.4672 120.308 92.8352 120.284 93.2029Z" fill="#263238"/>
<path d="M123.371 89.8348C122.876 90.175 120.317 88.3773 116.408 88.1164C112.5 87.8554 109.448 89.2077 109.072 88.7987C108.884 88.6159 109.42 87.9727 110.758 87.3395C112.56 86.5269 114.632 86.1737 116.687 86.3282C118.721 86.4618 120.643 87.1048 122.173 88.164C123.286 88.976 123.612 89.6813 123.371 89.8348Z" fill="#263238"/>
<path d="M135.084 117.933C137.21 117.6 139.381 117.478 141.545 117.571C142.552 117.571 143.518 117.498 143.757 116.977C143.952 116.169 143.831 115.333 143.409 114.582C142.731 112.59 142.022 110.504 141.28 108.326C139.24 103.005 137.742 97.5637 136.801 92.0537C139.379 97.2288 141.427 102.559 142.926 107.994C143.623 110.185 144.289 112.279 144.924 114.273C145.421 115.278 145.455 116.389 145.021 117.412C144.835 117.674 144.578 117.9 144.267 118.073C143.955 118.245 143.599 118.36 143.224 118.408C142.655 118.48 142.077 118.494 141.503 118.451C139.344 118.493 137.188 118.319 135.084 117.933V117.933Z" fill="#263238"/>
<path d="M123.311 119.09C123.949 119.117 123.5 122.468 126.803 125.158C130.107 127.847 134.661 127.861 134.632 128.332C134.666 128.545 133.536 128.897 131.626 128.774C129.141 128.591 126.818 127.719 125.065 126.313C123.383 124.963 122.43 123.148 122.408 121.252C122.438 119.834 123.021 119.037 123.311 119.09Z" fill="#263238"/>
<path d="M124.996 77.8507C124.497 78.6577 120.656 77.9271 116.017 77.9703C111.375 77.9437 107.542 78.6876 107.038 77.8839C106.816 77.4987 107.567 76.7648 109.171 76.0807C111.299 75.2547 113.638 74.823 116.009 74.8184C118.38 74.8138 120.721 75.2364 122.855 76.0542C124.438 76.7349 125.193 77.4655 124.996 77.8507Z" fill="#263238"/>
<path d="M161.859 86.0098C160.949 86.4354 158.68 84.8526 155.614 83.7253C152.594 82.5176 149.774 82.1504 149.449 81.2531C149.32 80.8285 149.988 80.3152 151.371 80.0993C153.191 79.8985 155.113 80.1555 156.894 80.8378C158.674 81.5201 160.232 82.5969 161.372 83.9318C162.188 84.9927 162.277 85.7938 161.859 86.0098Z" fill="#263238"/>
<path d="M85.2423 101.784C84.8 101.666 67.7256 98.9275 68.4555 112.759C69.1855 126.59 86.478 122.023 86.4866 121.625C86.4952 121.227 85.2423 101.784 85.2423 101.784Z" fill="#FFBE9D"/>
<path d="M78.3416 116.869C78.266 116.822 78.0225 117.022 77.502 117.174C76.7565 117.377 75.9407 117.342 75.2268 117.078C74.1561 116.446 73.3173 115.599 72.7965 114.626C72.2757 113.653 72.0916 112.587 72.2632 111.539C72.3317 110.355 72.7333 109.198 73.4386 108.152C73.6437 107.731 73.9747 107.357 74.4032 107.06C74.8317 106.763 75.3448 106.553 75.8985 106.448C76.2541 106.396 76.6214 106.444 76.9371 106.584C77.2528 106.723 77.4971 106.945 77.628 107.212C77.8211 107.61 77.6867 107.876 77.7791 107.909C77.8714 107.942 78.1736 107.7 78.0896 107.122C78.0239 106.775 77.8107 106.457 77.4852 106.219C77.0342 105.904 76.4447 105.742 75.8439 105.767C75.1207 105.839 74.4326 106.056 73.845 106.397C73.2573 106.738 72.7894 107.192 72.4857 107.717C71.631 108.866 71.144 110.163 71.0669 111.496C70.8648 112.717 71.123 113.959 71.8093 115.065C72.4956 116.171 73.5793 117.092 74.9246 117.712C75.3822 117.848 75.8727 117.901 76.3595 117.866C76.8464 117.832 77.3172 117.711 77.737 117.513C78.2785 117.201 78.4003 116.895 78.3416 116.869Z" fill="#EB996E"/>
<path d="M182.902 61.7994C183.209 79.7916 154.673 85.5666 143.444 74.8403C138.243 69.879 133.877 63.8051 126.393 61.2614C123.827 60.4794 121.091 60.1088 118.344 60.1709C115.596 60.233 112.891 60.7268 110.387 61.6234L110.235 61.6732C106.576 63.1596 103.402 65.2971 100.963 67.9177C98.5234 70.5382 96.8854 73.5705 96.1773 76.7763C93.772 85.5167 94.8088 93.417 91.14 101.35C90.7659 102.535 89.9033 103.586 88.6885 104.339C86.4637 105.415 83.5211 104.176 81.9344 102.539C79.6441 99.7554 78.4317 96.5028 78.4461 93.1812C77.6385 85.6701 78.7272 78.1068 81.6489 70.9317C84.6134 63.736 90.1797 57.3859 97.6591 52.6671C107.313 47.0031 119.37 44.5276 131.287 45.7631C143.145 47.0654 154.183 51.2929 162.829 57.8443C167.009 60.7177 170.217 64.37 172.165 68.4709" fill="#263238"/>
<path d="M165.419 50.8588C166.231 50.7821 167.054 50.8595 167.82 51.0846C169.962 51.6193 171.871 52.6179 173.332 53.9671C175.546 55.9712 176.833 58.5109 176.984 61.1699C177.015 64.4369 175.52 67.5978 172.786 70.0465C170.137 72.4942 166.679 74.3108 162.8 75.2934C159.679 76.075 156.417 76.4441 153.145 76.386C150.96 76.3553 148.782 76.1708 146.638 75.8347C145.838 75.7604 145.058 75.5831 144.33 75.3101C144.367 75.1174 147.717 75.7086 153.145 75.6421C156.299 75.5926 159.426 75.1638 162.418 74.3702C166.048 73.3962 169.28 71.669 171.779 69.3691C174.305 67.1129 175.723 64.2138 175.775 61.1998C175.684 58.7407 174.58 56.3724 172.631 54.4552C171.323 53.1445 169.618 52.1164 167.673 51.4665C166.908 51.2965 166.156 51.0936 165.419 50.8588Z" fill="#455A64"/>
<path d="M154.363 43.8418C154.363 43.7887 155.017 43.7256 156 44.1739C156.665 44.5224 157.226 44.9807 157.646 45.5173C158.065 46.0539 158.333 46.656 158.43 47.2822C158.592 49.1293 157.942 50.9639 156.592 52.476C155.138 54.3254 153.36 56.0025 151.311 57.4572C147.599 60.116 143.11 62.0034 138.247 62.9499C136.278 63.4425 134.198 63.5943 132.148 63.3949C132.123 63.2023 134.465 63.106 137.996 62.2227C142.594 61.1048 146.829 59.2091 150.408 56.6669C152.367 55.2746 154.092 53.6899 155.542 51.9513C156.8 50.6282 157.481 49.0176 157.481 47.3619C157.383 46.2619 156.741 45.2368 155.693 44.5093C154.929 44.0179 154.337 43.9315 154.363 43.8418Z" fill="#455A64"/>
<path d="M118 241.999C93 241.5 83.5001 234.5 83.5001 234.5C83.5001 234.5 87.5 209 118 211.5C146 213.795 151.5 239.499 151.5 239.499C151.5 239.499 143 242.499 118 241.999Z" fill="white"/>
</svg>
