<svg width="31" height="19" viewBox="0 0 31 19" fill="none" xmlns="http://www.w3.org/2000/svg">
<path d="M28.7972 8.26283H28.4917V3.21209C28.4917 1.44096 27.0507 0 25.2797 0H5.72034C3.9493 0 2.50834 1.44096 2.50834 3.21209V8.26283H2.20267C0.988162 8.26283 0 9.25099 0 10.4656V13.7292C0 14.9438 0.988162 15.9319 2.20277 15.9319H4.92605V18.0049C4.92605 18.3854 5.23447 18.6938 5.61494 18.6938C5.9954 18.6938 6.30383 18.3854 6.30383 18.0049V15.9319H24.6963V18.0049C24.6963 18.3854 25.0047 18.6938 25.3852 18.6938C25.7656 18.6938 26.0741 18.3854 26.0741 18.0049V15.9319H28.7973C30.0119 15.9319 31.0001 14.9438 31.0001 13.7292V10.4656C31 9.25099 30.0118 8.26283 28.7972 8.26283ZM3.88612 3.21209C3.88612 2.20071 4.70885 1.37778 5.72034 1.37778H25.2797C26.291 1.37778 27.1139 2.20061 27.1139 3.21209V8.26283H26.2307V6.87944C26.2307 5.99727 25.5131 5.27964 24.631 5.27964H17.5695C16.6873 5.27964 15.9695 5.99727 15.9695 6.87944V8.26283H15.0304V6.87944C15.0304 5.99727 14.3127 5.27964 13.4304 5.27964H6.36898C5.4869 5.27964 4.76928 5.99727 4.76928 6.87944V8.26283H3.88612V3.21209ZM17.3473 8.26283V6.87944C17.3473 6.75908 17.4491 6.65742 17.5695 6.65742H24.631C24.7514 6.65742 24.8529 6.75908 24.8529 6.87944V8.26283H17.3473ZM6.14705 8.26283V6.87944C6.14705 6.75908 6.24862 6.65742 6.36898 6.65742H13.4305C13.5509 6.65742 13.6527 6.75908 13.6527 6.87944V8.26283H6.14705ZM29.6222 13.7292C29.6222 14.184 29.2521 14.5542 28.7972 14.5542H2.20277C1.74791 14.5542 1.37778 14.184 1.37778 13.7292V10.4656C1.37778 10.0107 1.74791 9.64061 2.20277 9.64061H28.7972C29.2521 9.64061 29.6222 10.0107 29.6222 10.4656V13.7292Z" fill="black"/>
</svg>
