<svg width="57" height="57" viewBox="0 0 57 57" fill="none" xmlns="http://www.w3.org/2000/svg">
<path d="M46.5483 5.88882C46.5483 5.38932 46.1434 4.98438 45.6438 4.98438H11.3562C10.8566 4.98438 10.4518 5.38932 10.4518 5.88882C10.4518 6.38831 10.8566 6.79326 11.3562 6.79326H45.6438C46.1434 6.79326 46.5483 6.38831 46.5483 5.88882Z" fill="black"/>
<path d="M34.3646 37.7109H22.6355C22.1359 37.7109 21.7311 38.1159 21.7311 38.6154C21.7311 39.1149 22.1359 39.5198 22.6355 39.5198H34.3646C34.8642 39.5198 35.269 39.1149 35.269 38.6154C35.269 38.1159 34.8641 37.7109 34.3646 37.7109Z" fill="black"/>
<path d="M54.5279 9.80854H51.3719V6.49224C51.3719 3.00121 48.5317 0.161133 45.0408 0.161133H11.9592C8.46825 0.161133 5.62805 3.00121 5.62805 6.49224V9.80854H2.47215C1.10897 9.80854 0 10.9175 0 12.2807V19.6225C0 20.9857 1.10897 22.0946 2.47215 22.0946H2.91472C3.41434 22.0946 3.81917 21.6897 3.81917 21.1902C3.81917 20.6907 3.41434 20.2857 2.91472 20.2857H2.47215C2.10651 20.2857 1.80889 19.9882 1.80889 19.6225V12.2807C1.80889 11.9149 2.10651 11.6174 2.47215 11.6174H5.62805V48.4283C5.62805 49.268 6.12224 49.9926 6.83398 50.3321V55.9352C6.83398 56.4347 7.23881 56.8396 7.73842 56.8396H15.4738C15.9734 56.8396 16.3783 56.4347 16.3783 55.9352V53.252C16.3783 52.7525 15.9734 52.3476 15.4738 52.3476C14.9742 52.3476 14.5694 52.7525 14.5694 53.252V55.0307H8.64287V50.5387H48.3571V55.0307H42.4307V53.252C42.4307 52.7525 42.0259 52.3476 41.5263 52.3476C41.0267 52.3476 40.6218 52.7525 40.6218 53.252V55.9352C40.6218 56.4347 41.0267 56.8396 41.5263 56.8396H49.2616C49.7612 56.8396 50.166 56.4347 50.166 55.9352V50.3321C50.8778 49.9925 51.3719 49.268 51.3719 48.4283V11.6174H54.5279C54.8935 11.6174 55.1911 11.9149 55.1911 12.2807V19.6225C55.1911 19.9882 54.8935 20.2857 54.5279 20.2857H54.0853C53.5857 20.2857 53.1808 20.6907 53.1808 21.1902C53.1808 21.6897 53.5857 22.0946 54.0853 22.0946H54.5279C55.891 22.0946 57 20.9857 57 19.6225V12.2807C57 10.9175 55.891 9.80854 54.5279 9.80854ZM7.43694 6.49224C7.43694 3.99863 9.46555 1.97002 11.9592 1.97002H45.0408C47.5345 1.97002 49.5631 3.99863 49.5631 6.49224V9.80854H7.43694V6.49224ZM49.5631 43.7403H40.997C39.8334 43.7403 38.8866 42.7935 38.8866 41.6299V39.5195H46.8497C47.3493 39.5195 47.7542 39.1146 47.7542 38.6151C47.7542 38.1156 47.3493 37.7106 46.8497 37.7106H37.9822C37.4826 37.7106 37.0778 38.1156 37.0778 38.6151V41.6299C37.0778 43.7909 38.8359 45.5492 40.997 45.5492H49.5631V48.4283C49.5631 48.5917 49.425 48.7298 49.2616 48.7298H7.73842C7.57502 48.7298 7.43694 48.5917 7.43694 48.4283V45.5492H16.003C18.1641 45.5492 19.9223 43.7909 19.9223 41.6299V38.6151C19.9223 38.1156 19.5174 37.7106 19.0178 37.7106H10.1503C9.65066 37.7106 9.24583 38.1156 9.24583 38.6151C9.24583 39.1146 9.65066 39.5195 10.1503 39.5195H18.1134V41.6299C18.1134 42.7935 17.1666 43.7403 16.003 43.7403H7.43694V11.6174H27.5956V33.927H10.1503C9.65066 33.927 9.24583 34.332 9.24583 34.8315C9.24583 35.331 9.65066 35.7359 10.1503 35.7359H46.8497C47.3493 35.7359 47.7542 35.331 47.7542 34.8315C47.7542 34.332 47.3493 33.927 46.8497 33.927H29.4044V11.6174H49.5631V43.7403Z" fill="black"/>
</svg>
