<svg width="31" height="31" viewBox="0 0 31 31" fill="none" xmlns="http://www.w3.org/2000/svg">
<path d="M27.5 26C27.5 26.2759 27.276 26.5 26.9999 26.5H1.50005C1.224 26.5 0.999997 26.276 0.999997 26V11.5001H27.5V18H28.5V8.00004C28.5 7.17305 27.827 6.49999 26.9999 6.49999H24.9999V5.00005C24.9999 4.17306 24.327 3.5 23.4999 3.5C22.6729 3.5 21.9998 4.17296 21.9998 5.00005V6.5001H6.50003V5.00005C6.50003 4.17306 5.82707 3.5 4.99998 3.5C4.17289 3.5 3.49993 4.17296 3.49993 5.00005V6.5001H1.49994C0.672958 6.5001 0 7.17305 0 8.00004V26C0 26.827 0.672958 27.5 1.50005 27.5H27C27.827 27.5 28.5001 26.8271 28.5001 26V25H27.5001V26H27.5ZM22.9999 5.00005C22.9999 4.72453 23.2239 4.5 23.5 4.5C23.776 4.5 23.9999 4.72453 23.9999 5.00005V7.00004C23.9999 7.27556 23.7759 7.50009 23.4999 7.50009C23.2238 7.50009 22.9998 7.27556 22.9998 7.00004V5.00005H22.9999ZM4.50004 5.00005C4.50004 4.72453 4.72404 4.5 5.00009 4.5C5.27614 4.5 5.50014 4.72453 5.50014 5.00005V7.00004C5.50014 7.27556 5.27614 7.50009 5.00009 7.50009C4.72404 7.50009 4.50004 7.27556 4.50004 7.00004V5.00005ZM1.50005 7.50009H3.59209C3.79913 8.08057 4.3491 8.50009 5.00009 8.50009C5.65107 8.50009 6.20105 8.08057 6.40808 7.50009H22.0925C22.2995 8.08057 22.8495 8.50009 23.5005 8.50009C24.1515 8.50009 24.7015 8.08057 24.9085 7.50009H27C27.276 7.50009 27.5001 7.72463 27.5001 8.00014V10.5003H0.999997V8.00004C0.999997 7.72452 1.224 7.50009 1.50005 7.50009Z" fill="#333333"/>
<path d="M26.75 25.5C24.4065 25.5 22.5 23.5936 22.5 21.25C22.5 18.9064 24.4064 17 26.75 17C29.0936 17 31 18.9064 31 21.25C31 23.5936 29.0935 25.5 26.75 25.5Z" fill="#F9BA48"/>
<path d="M24.7774 21.0841L24.2224 21.9161L26.1 23.1676L30.8869 17.3166L30.113 16.6836L25.9 21.8326L24.7774 21.0841Z" fill="#333333"/>
<path d="M5.99993 13H2.5V16H5.99993V13ZM4.99994 15H3.5V14H5.00004L4.99994 15Z" fill="#333333"/>
<path d="M10.9999 13H7.5V16H11V13H10.9999ZM9.99994 15H8.5V14H9.99994V15Z" fill="#333333"/>
<path d="M15.9999 13H12.4999V16H15.9999V13ZM14.9999 15H13.4999V14H14.9999V15Z" fill="#333333"/>
<path d="M20.9999 13H17.4999V16H20.9999V13ZM19.9999 15H18.4999V14H19.9999V15Z" fill="#333333"/>
<path d="M25.9999 13H22.4999V16H25.9999V13ZM24.9999 15H23.4999V14H24.9999V15Z" fill="#333333"/>
<path d="M5.99993 17.5H2.5V20.5H5.99993V17.5ZM4.99994 19.5H3.5V18.5H5.00004L4.99994 19.5Z" fill="#333333"/>
<path d="M10.9999 17.5H7.5V20.5H11V17.5H10.9999ZM9.99994 19.5H8.5V18.5H9.99994V19.5Z" fill="#333333"/>
<path d="M15.9999 17.5H12.4999V20.5H15.9999V17.5ZM14.9999 19.5H13.4999V18.5H14.9999V19.5Z" fill="#333333"/>
<path d="M20.9999 17.5H17.4999V20.5H20.9999V17.5ZM19.9999 19.5H18.4999V18.5H19.9999V19.5Z" fill="#333333"/>
<path d="M2.5 25H5.99993V22H2.5V25ZM3.5 23H5.00004V24H3.5V23Z" fill="#333333"/>
<path d="M7.5 25H11V22H7.5V25ZM8.5 23H9.99994V24H8.5V23Z" fill="#333333"/>
<path d="M12.5 25H15.9999V22H12.4999V25H12.5ZM13.5 23H15V24H13.5V23Z" fill="#333333"/>
<path d="M17.5 25H21V22H17.5V25ZM18.5 23H19.9999V24H18.4999V23H18.5Z" fill="#333333"/>
</svg>
