<svg width="36" height="45" viewBox="0 0 36 45" fill="none" xmlns="http://www.w3.org/2000/svg">
<path d="M12.5615 40.6115H7.75382L5.8302 9.33203H12.5615V40.6115Z" fill="#CEE8FA"/>
<path d="M21.8813 6.19412C21.2847 6.19412 20.8009 5.58943 20.8009 4.84367V2.70089H13.3055V4.84367C13.3055 5.58934 12.8217 6.19412 12.2251 6.19412C11.6285 6.19412 11.1448 5.58943 11.1448 4.84367V1.35044C11.1448 0.60469 11.6286 0 12.2251 0H21.8813C22.4778 0 22.9616 0.60469 22.9616 1.35044V4.84367C22.9616 5.58951 22.4779 6.19412 21.8813 6.19412Z" fill="#2D527C"/>
<path d="M26.7226 28.1204L27.8751 9.33203H21.1438V32.8313C22.0758 30.1106 24.2182 28.1882 26.7226 28.1204Z" fill="#CEE8FA"/>
<path d="M33.0684 34.5346C32.4718 34.5346 31.988 35.1393 31.988 35.885C31.988 39.4219 29.6859 42.2996 26.8564 42.2996C24.0268 42.2996 21.7247 39.4219 21.7247 35.885C21.7247 32.8546 23.4489 30.2736 25.7345 29.6265C25.7352 29.6263 25.7359 29.6261 25.7366 29.626C25.8986 29.5802 26.0633 29.5442 26.2304 29.5185C26.2338 29.5179 26.2371 29.5175 26.2404 29.517C26.3191 29.5051 26.3983 29.4955 26.4779 29.4881C26.4836 29.4875 26.4894 29.4868 26.4952 29.4865C26.5784 29.4792 26.6621 29.4742 26.7463 29.4719C27.3142 29.4569 27.7696 28.8967 27.8013 28.1997L28.8758 10.6828H30.7736C31.3702 10.6828 31.854 10.0781 31.854 9.33238C31.854 8.58662 31.3702 7.98193 30.7736 7.98193H27.8751H21.1437H12.5615H5.83018H2.93167C2.33514 7.98193 1.85132 8.58662 1.85132 9.33238C1.85132 10.0781 2.33507 10.6828 2.93167 10.6828H4.8297L6.67667 40.7155C6.71992 41.4191 7.18933 41.9623 7.75387 41.9623H12.5616H15.9272C16.5237 41.9623 17.0075 41.3577 17.0075 40.6119C17.0075 39.8662 16.5238 39.2615 15.9272 39.2615H13.6419V10.6826H20.0634V32.5644C19.7366 33.6095 19.564 34.7312 19.564 35.8849C19.564 40.9112 22.8353 45.0002 26.8564 45.0002C30.8774 45.0002 34.1487 40.9111 34.1487 35.8849C34.1487 35.1392 33.6649 34.5346 33.0684 34.5346ZM22.2241 10.6826H26.7088L25.7152 26.8811C25.7104 26.8821 25.7056 26.8834 25.7007 26.8842C25.6353 26.8971 25.5702 26.9123 25.5052 26.9274C25.486 26.932 25.4669 26.9365 25.4477 26.9413C24.264 27.2299 23.1605 27.8796 22.2242 28.8456V10.6826H22.2241ZM11.4811 39.2614H8.75428L6.99674 10.6826H11.4812V39.2614H11.4811Z" fill="#2D527C"/>
<path d="M28.3842 35.8859L28.9445 35.1856C29.3664 34.6583 29.3664 33.8032 28.9445 33.2757C28.5225 32.7486 27.8387 32.7486 27.4166 33.2757L26.8563 33.9761L26.2961 33.2757C25.8744 32.7488 25.1905 32.7486 24.7682 33.2757C24.3463 33.8031 24.3463 34.6582 24.7682 35.1856L25.3284 35.8859L24.7682 36.5862C24.3463 37.1136 24.3463 37.9687 24.7682 38.4961C24.9792 38.7597 25.2557 38.8916 25.5321 38.8916C25.8085 38.8916 26.085 38.7597 26.2959 38.4961L26.8562 37.7958L27.4165 38.4961C27.6275 38.7597 27.9039 38.8916 28.1803 38.8916C28.4568 38.8916 28.7333 38.7597 28.9442 38.4961C29.3661 37.9688 29.3661 37.1137 28.9442 36.5862L28.3842 35.8859Z" fill="#2D527C"/>
</svg>
