<svg width="31" height="25" viewBox="0 0 31 25" fill="none" xmlns="http://www.w3.org/2000/svg">
<path d="M27.5 23C27.5 23.2759 27.276 23.5 26.9999 23.5H1.50005C1.224 23.5 0.999997 23.276 0.999997 23V8.50008H27.5V15H28.5V5.00004C28.5 4.17305 27.827 3.49999 26.9999 3.49999H24.9999V2.00005C24.9999 1.17306 24.327 0.5 23.4999 0.5C22.6729 0.5 21.9998 1.17296 21.9998 2.00005V3.5001H6.50003V2.00005C6.50003 1.17306 5.82707 0.5 4.99998 0.5C4.17289 0.5 3.49993 1.17296 3.49993 2.00005V3.5001H1.49994C0.672958 3.5001 0 4.17305 0 5.00004V23C0 23.827 0.672958 24.5 1.50005 24.5H27C27.827 24.5 28.5001 23.8271 28.5001 23V22H27.5001V23H27.5ZM22.9999 2.00005C22.9999 1.72453 23.2239 1.5 23.5 1.5C23.776 1.5 23.9999 1.72453 23.9999 2.00005V4.00004C23.9999 4.27556 23.7759 4.50009 23.4999 4.50009C23.2238 4.50009 22.9998 4.27556 22.9998 4.00004V2.00005H22.9999ZM4.50004 2.00005C4.50004 1.72453 4.72404 1.5 5.00009 1.5C5.27614 1.5 5.50014 1.72453 5.50014 2.00005V4.00004C5.50014 4.27556 5.27614 4.50009 5.00009 4.50009C4.72404 4.50009 4.50004 4.27556 4.50004 4.00004V2.00005ZM1.50005 4.50009H3.59209C3.79913 5.08057 4.3491 5.50009 5.00009 5.50009C5.65107 5.50009 6.20105 5.08057 6.40808 4.50009H22.0925C22.2995 5.08057 22.8495 5.50009 23.5005 5.50009C24.1515 5.50009 24.7015 5.08057 24.9085 4.50009H27C27.276 4.50009 27.5001 4.72463 27.5001 5.00014V7.5003H0.999997V5.00004C0.999997 4.72452 1.224 4.50009 1.50005 4.50009Z" fill="#333333"/>
<path d="M26.75 22.5C24.4065 22.5 22.5 20.5936 22.5 18.25C22.5 15.9064 24.4064 14 26.75 14C29.0936 14 31 15.9064 31 18.25C31 20.5936 29.0935 22.5 26.75 22.5Z" fill="#F9BA48"/>
<path d="M24.7774 18.0841L24.2224 18.9161L26.1 20.1676L30.8869 14.3166L30.113 13.6836L25.9 18.8326L24.7774 18.0841Z" fill="#333333"/>
<path d="M5.99993 10H2.5V13H5.99993V10ZM4.99994 12H3.5V11H5.00004L4.99994 12Z" fill="#333333"/>
<path d="M10.9999 10H7.5V13H11V10H10.9999ZM9.99994 12H8.5V11H9.99994V12Z" fill="#333333"/>
<path d="M15.9999 10H12.4999V13H15.9999V10ZM14.9999 12H13.4999V11H14.9999V12Z" fill="#333333"/>
<path d="M20.9999 10H17.4999V13H20.9999V10ZM19.9999 12H18.4999V11H19.9999V12Z" fill="#333333"/>
<path d="M25.9999 10H22.4999V13H25.9999V10ZM24.9999 12H23.4999V11H24.9999V12Z" fill="#333333"/>
<path d="M5.99993 14.5H2.5V17.5H5.99993V14.5ZM4.99994 16.5H3.5V15.5H5.00004L4.99994 16.5Z" fill="#333333"/>
<path d="M10.9999 14.5H7.5V17.5H11V14.5H10.9999ZM9.99994 16.5H8.5V15.5H9.99994V16.5Z" fill="#333333"/>
<path d="M15.9999 14.5H12.4999V17.5H15.9999V14.5ZM14.9999 16.5H13.4999V15.5H14.9999V16.5Z" fill="#333333"/>
<path d="M20.9999 14.5H17.4999V17.5H20.9999V14.5ZM19.9999 16.5H18.4999V15.5H19.9999V16.5Z" fill="#333333"/>
<path d="M2.5 22H5.99993V19H2.5V22ZM3.5 20H5.00004V21H3.5V20Z" fill="#333333"/>
<path d="M7.5 22H11V19H7.5V22ZM8.5 20H9.99994V21H8.5V20Z" fill="#333333"/>
<path d="M12.5 22H15.9999V19H12.4999V22H12.5ZM13.5 20H15V21H13.5V20Z" fill="#333333"/>
<path d="M17.5 22H21V19H17.5V22ZM18.5 20H19.9999V21H18.4999V20H18.5Z" fill="#333333"/>
</svg>
