<svg width="31" height="24" viewBox="0 0 31 24" fill="none" xmlns="http://www.w3.org/2000/svg">
<path d="M27.5 22.5C27.5 22.7759 27.276 23 26.9999 23H1.50005C1.224 23 0.999997 22.776 0.999997 22.5V8.00008H27.5V14.5H28.5V4.50004C28.5 3.67305 27.827 2.99999 26.9999 2.99999H24.9999V1.50005C24.9999 0.673064 24.327 0 23.4999 0C22.6729 0 21.9998 0.672958 21.9998 1.50005V3.0001H6.50003V1.50005C6.50003 0.673064 5.82707 0 4.99998 0C4.17289 0 3.49993 0.672958 3.49993 1.50005V3.0001H1.49994C0.672958 3.0001 0 3.67305 0 4.50004V22.5C0 23.327 0.672958 24 1.50005 24H27C27.827 24 28.5001 23.3271 28.5001 22.5V21.5H27.5001V22.5H27.5ZM22.9999 1.50005C22.9999 1.22453 23.2239 0.999997 23.5 0.999997C23.776 0.999997 23.9999 1.22453 23.9999 1.50005V3.50004C23.9999 3.77556 23.7759 4.00009 23.4999 4.00009C23.2238 4.00009 22.9998 3.77556 22.9998 3.50004V1.50005H22.9999ZM4.50004 1.50005C4.50004 1.22453 4.72404 0.999997 5.00009 0.999997C5.27614 0.999997 5.50014 1.22453 5.50014 1.50005V3.50004C5.50014 3.77556 5.27614 4.00009 5.00009 4.00009C4.72404 4.00009 4.50004 3.77556 4.50004 3.50004V1.50005ZM1.50005 4.00009H3.59209C3.79913 4.58057 4.3491 5.00009 5.00009 5.00009C5.65107 5.00009 6.20105 4.58057 6.40808 4.00009H22.0925C22.2995 4.58057 22.8495 5.00009 23.5005 5.00009C24.1515 5.00009 24.7015 4.58057 24.9085 4.00009H27C27.276 4.00009 27.5001 4.22463 27.5001 4.50014V7.0003H0.999997V4.50004C0.999997 4.22452 1.224 4.00009 1.50005 4.00009Z" fill="#333333"/>
<path d="M26.75 22C24.4065 22 22.5 20.0936 22.5 17.75C22.5 15.4064 24.4064 13.5 26.75 13.5C29.0936 13.5 31 15.4064 31 17.75C31 20.0936 29.0935 22 26.75 22Z" fill="#F9BA48"/>
<path d="M24.7774 17.5841L24.2224 18.4161L26.1 19.6676L30.8869 13.8166L30.113 13.1836L25.9 18.3326L24.7774 17.5841Z" fill="#333333"/>
<path d="M5.99997 9.5H2.50003V12.5H5.99997V9.5ZM4.99997 11.5H3.50003V10.5H5.00008L4.99997 11.5Z" fill="#333333"/>
<path d="M11 9.5H7.50003V12.5H11.0001V9.5H11ZM9.99997 11.5H8.50003V10.5H9.99997V11.5Z" fill="#333333"/>
<path d="M16 9.5H12.4999V12.5H16V9.5ZM15 11.5H13.4999V10.5H15V11.5Z" fill="#333333"/>
<path d="M20.9999 9.5H17.4999V12.5H20.9999V9.5ZM19.9999 11.5H18.4999V10.5H19.9999V11.5Z" fill="#333333"/>
<path d="M25.9999 9.5H22.4999V12.5H25.9999V9.5ZM24.9999 11.5H23.4999V10.5H24.9999V11.5Z" fill="#333333"/>
<path d="M5.99997 14H2.50003V17H5.99997V14ZM4.99997 16H3.50003V15H5.00008L4.99997 16Z" fill="#333333"/>
<path d="M11 14H7.50003V17H11.0001V14H11ZM9.99997 16H8.50003V15H9.99997V16Z" fill="#333333"/>
<path d="M16 14H12.4999V17H16V14ZM15 16H13.4999V15H15V16Z" fill="#333333"/>
<path d="M20.9999 14H17.4999V17H20.9999V14ZM19.9999 16H18.4999V15H19.9999V16Z" fill="#333333"/>
<path d="M2.50003 21.5H5.99997V18.5H2.50003V21.5ZM3.50003 19.5H5.00008V20.5H3.50003V19.5Z" fill="#333333"/>
<path d="M7.50003 21.5H11.0001V18.5H7.50003V21.5ZM8.50003 19.5H9.99997V20.5H8.50003V19.5Z" fill="#333333"/>
<path d="M12.5 21.5H16V18.5H12.4999V21.5H12.5ZM13.5 19.5H15.0001V20.5H13.5V19.5Z" fill="#333333"/>
<path d="M17.5 21.5H21V18.5H17.5V21.5ZM18.5 19.5H19.9999V20.5H18.4999V19.5H18.5Z" fill="#333333"/>
</svg>
