<svg width="60" height="38" viewBox="0 0 60 38" fill="none" xmlns="http://www.w3.org/2000/svg">
<path d="M55.7366 16.9018H55.1451V7.12613C55.1451 3.69813 52.3562 0.90918 48.9284 0.90918H11.0716C7.64381 0.90918 4.85486 3.69813 4.85486 7.12613V16.9018H4.26324C1.91257 16.9018 0 18.8143 0 21.1652V27.4818C0 29.8326 1.91257 31.7452 4.26343 31.7452H9.53429V35.7574C9.53429 36.4938 10.1312 37.0907 10.8676 37.0907C11.604 37.0907 12.201 36.4938 12.201 35.7574V31.7452H47.7992V35.7574C47.7992 36.4938 48.3962 37.0907 49.1326 37.0907C49.869 37.0907 50.4659 36.4938 50.4659 35.7574V31.7452H55.7368C58.0876 31.7452 60.0002 29.8326 60.0002 27.4818V21.1652C60 18.8143 58.0874 16.9018 55.7366 16.9018ZM7.52152 7.12613C7.52152 5.16861 9.1139 3.57585 11.0716 3.57585H48.9284C50.8859 3.57585 52.4785 5.16842 52.4785 7.12613V16.9018H50.7691V14.2242C50.7691 12.5168 49.3802 11.1278 47.673 11.1278H34.0055C32.2979 11.1278 30.9088 12.5168 30.9088 14.2242V16.9018H29.091V14.2242C29.091 12.5168 27.7019 11.1278 25.9943 11.1278H12.327C10.6198 11.1278 9.23086 12.5168 9.23086 14.2242V16.9018H7.52152V7.12613ZM33.5754 16.9018V14.2242C33.5754 13.9913 33.7724 13.7945 34.0055 13.7945H47.673C47.9059 13.7945 48.1025 13.9913 48.1025 14.2242V16.9018H33.5754ZM11.8975 16.9018V14.2242C11.8975 13.9913 12.0941 13.7945 12.327 13.7945H25.9945C26.2276 13.7945 26.4246 13.9913 26.4246 14.2242V16.9018H11.8975ZM57.3333 27.4818C57.3333 28.3621 56.617 29.0785 55.7366 29.0785H4.26343C3.38305 29.0785 2.66667 28.3621 2.66667 27.4818V21.1652C2.66667 20.2848 3.38305 19.5684 4.26343 19.5684H55.7366C56.617 19.5684 57.3333 20.2848 57.3333 21.1652V27.4818Z" fill="black"/>
</svg>
