<svg width="32" height="36" viewBox="0 0 32 36" fill="none" xmlns="http://www.w3.org/2000/svg">
<path d="M31.3626 0.54834H0.637438C0.285375 0.54834 0 0.869527 0 1.26553V6.90895C0 7.30495 0.285375 7.62607 0.637438 7.62607H1.59706L11.4787 23.289L14.3228 34.9242C14.3989 35.2355 14.6505 35.4512 14.9374 35.4512H17.0624C17.3494 35.4512 17.6009 35.2355 17.6771 34.9242L20.5212 23.289L30.4028 7.62607H31.3626C31.7146 7.62607 32 7.30495 32 6.90895V1.26553C32 0.869527 31.7146 0.54834 31.3626 0.54834ZM16.5767 34.0169H15.4233L12.8999 23.6941H19.1001L16.5767 34.0169ZM19.6072 22.2597H12.3928L3.1605 7.62607H28.8396L19.6072 22.2597ZM30.7251 6.19176H1.27488V1.98265H30.7251V6.19176H30.7251Z" fill="white"/>
<path d="M26.0509 8.98926C25.7638 8.76018 25.3659 8.83598 25.1621 9.15899L24.8159 9.70757C24.6121 10.0305 24.6797 10.4781 24.9668 10.7075C25.0788 10.7969 25.2076 10.8399 25.3352 10.8399C25.5348 10.8399 25.7313 10.7348 25.8556 10.5378L26.2018 9.98917C26.4055 9.66616 26.338 9.21855 26.0509 8.98926Z" fill="white"/>
<path d="M24.3811 11.6251C24.094 11.3958 23.6961 11.4718 23.4923 11.7948L18.2818 20.0538C18.078 20.3768 18.1455 20.8245 18.4326 21.0537C18.5446 21.1431 18.6734 21.1861 18.801 21.1861C19.0005 21.1861 19.1971 21.081 19.3214 20.884L24.5319 12.625C24.7357 12.3019 24.6682 11.8543 24.3811 11.6251Z" fill="white"/>
</svg>
