<svg width="31" height="24" viewBox="0 0 31 24" fill="none" xmlns="http://www.w3.org/2000/svg">
<path d="M9.87286 6.42548C9.87286 7.83277 10.4686 9.45697 11.4665 10.7704C12.5993 12.2613 14.0317 13.0824 15.4998 13.0824C16.9678 13.0824 18.4001 12.2613 19.533 10.7703C20.5308 9.45697 21.1266 7.83271 21.1266 6.42548C21.1266 3.55998 18.6024 1.22876 15.4998 1.22876C12.3971 1.22876 9.87286 3.55998 9.87286 6.42548ZM15.4998 2.13126C18.0635 2.13126 20.1494 4.05768 20.1494 6.42548C20.1494 7.63591 19.6067 9.10211 18.7331 10.252C17.8022 11.4772 16.6237 12.1799 15.4998 12.1799C14.3759 12.1799 13.1974 11.4772 12.2664 10.252C11.3928 9.10217 10.8501 7.63597 10.8501 6.42548C10.8501 4.05762 12.9359 2.13126 15.4998 2.13126Z" fill="black"/>
<path d="M19.6985 12.0746C19.512 11.9926 19.2898 12.0278 19.1434 12.1625C18.0506 13.169 16.7905 13.7009 15.4994 13.7009C14.2082 13.7009 12.9484 13.169 11.8563 12.1626C11.7099 12.0278 11.4876 11.9926 11.3011 12.0746C9.65593 12.7979 8.26349 13.9295 7.27437 15.3469C6.25835 16.803 5.72128 18.4923 5.72128 20.2322V20.2394C5.72128 20.3668 5.77952 20.4882 5.88161 20.5737C8.51952 22.7832 11.9351 23.9999 15.4994 23.9999C19.0636 23.9999 22.4792 22.7831 25.1171 20.5737C25.2192 20.4882 25.2775 20.3668 25.2775 20.2394V20.2322C25.2775 18.4923 24.7405 16.803 23.7248 15.347C22.7359 13.9294 21.3436 12.7978 19.6985 12.0746ZM15.4995 23.0974C12.2512 23.0974 9.13567 22.013 6.70102 20.0393C6.739 18.5414 7.21933 17.092 8.09587 15.8358C8.9259 14.6463 10.0712 13.6804 11.4221 13.0274C12.6434 14.0597 14.0465 14.6034 15.4995 14.6034C16.9523 14.6034 18.3557 14.0598 19.5775 13.0274C20.9283 13.6804 22.0735 14.6463 22.9035 15.8358C23.7798 17.0919 24.26 18.5414 24.298 20.0393C21.8633 22.013 18.7477 23.0974 15.4995 23.0974Z" fill="black"/>
<path d="M29.6467 12.3588C28.7848 11.1235 27.5714 10.1373 26.1376 9.50696C25.9512 9.42495 25.7288 9.46015 25.5826 9.59486C24.6502 10.4535 23.5767 10.9074 22.4781 10.9074C21.8825 10.9074 21.2935 10.7747 20.7274 10.5131C20.486 10.4016 20.1926 10.4919 20.0718 10.7147C19.951 10.9377 20.0488 11.2087 20.2901 11.3202C20.9933 11.6452 21.7294 11.8099 22.4781 11.8099C23.7377 11.8099 24.954 11.3444 26.0148 10.4599C27.1551 11.0194 28.1222 11.8398 28.8253 12.8477C29.5709 13.9164 29.982 15.1486 30.02 16.4225C28.8132 17.3947 27.3781 18.1342 25.8564 18.5665C25.5985 18.6398 25.4537 18.8923 25.5331 19.1305C25.5977 19.3245 25.791 19.4492 25.9999 19.4492C26.0475 19.4492 26.0959 19.4428 26.1437 19.4292C27.8707 18.9386 29.4945 18.0837 30.8396 16.957C30.9418 16.8715 31 16.7501 31 16.6228V16.6164C30.9999 15.1 30.5319 13.6277 29.6467 12.3588Z" fill="black"/>
<path d="M8.50115 10.3482C9.01776 10.3482 9.53314 10.2319 10.0331 10.0024C10.2748 9.89152 10.3733 9.62065 10.2533 9.39749C10.1332 9.17427 9.83991 9.0833 9.59828 9.19419C9.23464 9.36109 8.86552 9.44569 8.50115 9.44569C7.55386 9.44569 6.55744 8.84919 5.76735 7.80915C5.02149 6.82735 4.5581 5.57625 4.5581 4.54415C4.5581 2.53609 6.32695 0.90244 8.50115 0.90244C9.52734 0.90244 10.4992 1.26476 11.2377 1.92275C11.4318 2.09573 11.7412 2.09073 11.9285 1.91131C12.1159 1.73196 12.1103 1.44629 11.9161 1.27331C10.9946 0.452213 9.78174 0 8.50115 0C5.78806 0 3.5809 2.03851 3.5809 4.54421C3.5809 5.7704 4.09927 7.18474 4.96741 8.32755C5.95731 9.63058 7.21229 10.3482 8.50115 10.3482Z" fill="black"/>
<path d="M3.97615 18.1501C2.88475 17.7156 1.87785 17.1289 0.980128 16.405C1.01804 15.1348 1.42801 13.9063 2.17172 12.8405C2.87276 11.8359 3.83693 11.0179 4.97367 10.46C6.03158 11.3422 7.24441 11.8063 8.50063 11.8063C9.25548 11.8063 9.99698 11.6387 10.7045 11.3083C10.9453 11.1958 11.0417 10.9244 10.92 10.7019C10.7982 10.4795 10.5043 10.3904 10.2634 10.5029C9.69392 10.7689 9.10083 10.9038 8.50063 10.9038C7.40546 10.9038 6.3353 10.4512 5.40592 9.59492C5.2596 9.46015 5.03732 9.42495 4.8508 9.50696C3.42058 10.1358 2.21016 11.1194 1.35029 12.3516C0.466904 13.6176 0 15.0863 0 16.5989V16.6051C0 16.7324 0.0582409 16.8538 0.160325 16.9394C1.1785 17.7922 2.33218 18.4784 3.58924 18.9789C3.6523 19.004 3.71791 19.0159 3.78247 19.0159C3.97165 19.0159 4.15172 18.9138 4.23139 18.7431C4.33817 18.5143 4.2239 18.2488 3.97615 18.1501Z" fill="black"/>
<path d="M4.55074 18.8034C4.37673 19.191 4.84598 19.5754 5.2424 19.3682C5.45334 19.2578 5.54748 19.0109 5.45263 18.8035C5.29582 18.4338 4.71139 18.4454 4.55074 18.8034Z" fill="black"/>
<path d="M5.45263 18.8037C5.46501 18.8308 5.4409 18.776 5.45263 18.8037V18.8037Z" fill="black"/>
<path d="M19.7618 1.92275C20.5003 1.26476 21.4722 0.90244 22.4984 0.90244C24.6726 0.90244 26.4414 2.53609 26.4414 4.54415C26.4414 5.57625 25.9781 6.82729 25.2321 7.80915C24.442 8.84919 23.4456 9.44569 22.4983 9.44569C22.134 9.44569 21.7648 9.36109 21.4012 9.19419C21.1594 9.08324 20.8662 9.17427 20.7461 9.39749C20.6261 9.62065 20.7246 9.89146 20.9663 10.0024C21.4663 10.2319 21.9817 10.3482 22.4983 10.3482C23.7871 10.3482 25.0422 9.63064 26.0321 8.32755C26.9003 7.18474 27.4186 5.7704 27.4186 4.54421C27.4186 2.03851 25.2113 0 22.4983 0C21.2177 0 20.005 0.452213 19.0833 1.27331C18.8891 1.44629 18.8836 1.73202 19.071 1.91131C19.2582 2.09067 19.5676 2.09579 19.7618 1.92275Z" fill="black"/>
</svg>
