<svg width="31" height="29" viewBox="0 0 31 29" fill="none" xmlns="http://www.w3.org/2000/svg">
<path d="M19.5177 26.77C14.4729 24.8351 11.0833 19.9042 11.0833 14.5004C11.0833 9.0965 14.4728 4.16568 19.5176 2.23066C19.7564 2.13906 19.914 1.90982 19.914 1.65407C19.914 1.39832 19.7564 1.16909 19.5176 1.07749C17.8749 0.447436 16.1439 0.12793 14.3724 0.12793C10.5335 0.12793 6.92414 1.62289 4.20958 4.33751C1.49496 7.05207 0 10.6613 0 14.5004C0 18.3395 1.49496 21.9487 4.20958 24.6632C6.9242 27.3779 10.5335 28.8728 14.3724 28.8728C16.1438 28.8728 17.8749 28.5533 19.5177 27.9232C19.7564 27.8316 19.9141 27.6024 19.9141 27.3466C19.9141 27.0909 19.7564 26.8616 19.5177 26.77ZM14.3724 27.6378C7.12849 27.6378 1.23504 21.7444 1.23504 14.5004C1.23504 7.25636 7.12855 1.36297 14.3724 1.36297C15.4599 1.36297 16.5304 1.49453 17.5709 1.75537C15.5306 2.81912 13.7762 4.35737 12.4386 6.26793C10.744 8.68847 9.84825 11.5352 9.84825 14.5004C9.84825 17.4655 10.744 20.3123 12.4387 22.7329C13.7762 24.6434 15.5306 26.1816 17.571 27.2454C16.5304 27.5061 15.4599 27.6378 14.3724 27.6378Z" fill="black"/>
<path d="M25.1335 9.29387C25.0608 9.07033 24.8676 8.90734 24.6349 8.87355L22.5462 8.57003L21.612 6.67722C21.5079 6.46645 21.2933 6.33301 21.0582 6.33301C20.8231 6.33301 20.6085 6.46645 20.5044 6.67728L19.5703 8.57003L17.4815 8.87355C17.2489 8.9074 17.0557 9.07033 16.983 9.29387C16.9104 9.51741 16.9709 9.76281 17.1392 9.92689L18.6508 11.4002L18.294 13.4805C18.2542 13.7122 18.3495 13.9463 18.5397 14.0845C18.7298 14.2227 18.982 14.2409 19.19 14.1315L21.0583 13.1493L22.9266 14.1315C23.0169 14.179 23.1155 14.2025 23.2139 14.2025C23.3419 14.2025 23.4693 14.1627 23.5768 14.0845C23.767 13.9463 23.8623 13.7122 23.8225 13.4805L23.4657 11.4002L24.9772 9.92689C25.1455 9.76287 25.206 9.51741 25.1335 9.29387ZM22.3712 10.7425C22.2257 10.8844 22.1593 11.0888 22.1936 11.2891L22.3938 12.4561L21.3457 11.9051C21.2558 11.8578 21.1571 11.8341 21.0583 11.8341C20.9596 11.8341 20.8609 11.8578 20.771 11.9051L19.7229 12.4562L19.9231 11.2891C19.9574 11.0887 19.891 10.8843 19.7455 10.7425L18.8975 9.91599L20.0694 9.74573C20.2706 9.71655 20.4444 9.59019 20.5344 9.40788L21.0583 8.34601L21.5824 9.40788C21.6724 9.59013 21.8462 9.71649 22.0474 9.74567L23.2191 9.91593L22.3712 10.7425Z" fill="black"/>
<path d="M30.9698 17.7587C30.8972 17.5351 30.7039 17.3721 30.4713 17.3383L28.3825 17.0348L27.4483 15.1421C27.3442 14.9313 27.1296 14.7979 26.8945 14.7979C26.6594 14.7979 26.4448 14.9313 26.3407 15.1421L25.4067 17.0348L23.3179 17.3383C23.0853 17.3722 22.8921 17.5351 22.8194 17.7587C22.7468 17.9822 22.8073 18.2276 22.9756 18.3917L24.4871 19.865L24.1303 21.9453C24.0906 22.177 24.1859 22.4111 24.376 22.5493C24.5662 22.6875 24.8184 22.7057 25.0264 22.5963L26.8946 21.6141L28.7629 22.5963C28.8533 22.6438 28.9519 22.6672 29.0502 22.6672C29.1782 22.6672 29.3057 22.6275 29.4132 22.5493C29.6033 22.4111 29.6986 22.177 29.6589 21.9453L29.3021 19.865L30.8136 18.3917C30.9818 18.2276 31.0424 17.9822 30.9698 17.7587ZM28.2075 19.2072C28.062 19.3491 27.9956 19.5535 28.03 19.7538L28.2301 20.9208L27.182 20.3698C27.0921 20.3225 26.9934 20.2988 26.8946 20.2988C26.7959 20.2988 26.6971 20.3224 26.6073 20.3698L25.5592 20.9208L25.7594 19.7538C25.7937 19.5534 25.7273 19.349 25.5818 19.2072L24.7338 18.3807L25.9057 18.2104C26.1069 18.1812 26.2807 18.0548 26.3707 17.8726L26.8946 16.8107L27.4187 17.8726C27.5087 18.0548 27.6825 18.1812 27.8836 18.2104L29.0555 18.3807L28.2075 19.2072Z" fill="black"/>
<path d="M12.0175 23.64C11.2552 22.6209 10.6257 21.4852 10.1465 20.2642C10.0219 19.9468 9.66369 19.7902 9.34606 19.915C9.02867 20.0396 8.87222 20.398 8.99682 20.7154C9.51638 22.0393 10.1999 23.2722 11.0284 24.3798C11.1497 24.5419 11.3354 24.6274 11.5234 24.6274C11.6522 24.6274 11.7819 24.5873 11.8928 24.5043C12.166 24.3 12.2218 23.913 12.0175 23.64Z" fill="black"/>
<path d="M13.9003 25.6758C13.6342 25.4438 13.3729 25.1958 13.1236 24.9387C12.8862 24.6938 12.4952 24.6877 12.2504 24.9251C12.0055 25.1626 11.9993 25.5535 12.2368 25.7984C12.51 26.0802 12.7966 26.3521 13.0886 26.6068C13.2056 26.7088 13.3502 26.7588 13.4942 26.7588C13.6664 26.7588 13.8378 26.6872 13.9599 26.5472C14.1841 26.2901 14.1574 25.9 13.9003 25.6758Z" fill="black"/>
</svg>
