<svg width="49" height="55" viewBox="0 0 49 55" fill="none" xmlns="http://www.w3.org/2000/svg">
<path d="M47.7436 6.92465L24.8277 0.049869C24.6123 -0.016623 24.3855 -0.016623 24.17 0.049869L1.25408 6.92465C0.770585 7.07128 0.438232 7.51588 0.438232 8.02236V33.2299C0.438232 36.9927 2.57404 40.5997 5.67682 43.7805C5.69282 43.7988 5.69744 43.8217 5.71345 43.8377C5.72494 43.8515 5.7432 43.8537 5.7547 43.8675C11.007 49.2115 18.9864 53.3409 24.1608 54.9496C24.2708 54.9818 24.3854 55 24.4999 55C24.6144 55 24.729 54.9817 24.839 54.9496C29.578 53.4738 36.6659 49.8783 41.861 45.1783C41.861 45.1783 41.8632 45.1783 41.8656 45.1761C41.8747 45.1692 41.8771 45.1601 41.8862 45.1554C45.7452 41.6562 48.5616 37.5473 48.5616 33.2299V8.02236C48.5617 7.51588 48.2295 7.07128 47.7436 6.92465ZM24.5 52.6535C19.2729 50.9623 12.8106 47.408 8.28698 43.1548C9.03859 42.6254 9.84294 42.1877 10.7253 41.97L17.7054 40.2239C18.1157 40.1207 18.4388 39.8022 18.5395 39.3897L19.3691 36.0692C19.47 35.6682 19.3439 35.242 19.0414 34.9578C17.3846 33.4018 16.2869 31.1216 16.1059 28.8598C16.0577 28.264 15.5605 27.8057 14.9624 27.8057H14.6874C14.4124 27.8057 14.1787 27.5995 14.1443 27.3245L13.7203 23.9352C13.6928 23.7221 13.7913 23.5731 13.8532 23.5044C13.9151 23.4356 14.0503 23.3188 14.4398 23.3188C14.7698 23.3188 15.0814 23.1766 15.2992 22.9315C15.5169 22.6818 15.6177 22.3563 15.5764 22.0287C15.4687 21.1671 15.1845 18.7494 15.1845 17.9382C15.1845 15.8367 15.1845 13.2174 21.6721 13.1556C21.9058 13.1533 22.1373 13.0799 22.3274 12.9402C24.1515 11.6362 26.1246 11.4599 27.8113 11.4599C30.0846 11.4599 31.6818 12.1405 32.5595 13.4833C33.5655 15.0164 33.1851 15.7704 32.7061 16.2791L31.8605 17.1269C31.6589 17.3286 31.5397 17.5967 31.5259 17.8809L31.3197 22.1204C31.3059 22.432 31.4182 22.7345 31.6313 22.9614C31.8421 23.186 32.14 23.3166 32.4516 23.3211C32.667 23.3234 32.8 23.4402 32.8595 23.509C32.9191 23.58 33.0154 23.7244 32.9901 23.933L32.5661 27.3222C32.5318 27.595 32.3003 27.8012 31.9405 27.8012C31.3424 27.8012 30.8452 28.2596 30.7971 28.8577C30.6115 31.1882 29.4634 33.5119 27.7218 35.0747C27.4055 35.3589 27.2727 35.792 27.3758 36.2045L28.171 39.3875C28.2741 39.7977 28.595 40.1185 29.0051 40.2216L35.9853 41.9678C37.3762 42.3138 38.6252 43.0838 39.6129 44.1402C35.1811 47.9511 29.317 51.0974 24.5 52.6535ZM46.2702 33.2298C46.2702 36.4106 44.2605 39.6509 41.2928 42.5955C40.0026 41.2091 38.3664 40.1985 36.5377 39.7403L30.2244 38.1637L29.7569 36.2937C31.4298 34.5842 32.5847 32.2904 32.9697 29.9299C33.9551 29.5747 34.6999 28.6947 34.835 27.6063L35.259 24.217C35.3599 23.4173 35.1124 22.6105 34.583 22.0011C34.3218 21.7032 34.0033 21.4648 33.6503 21.2998L33.7924 18.433L34.3493 17.8739C35.3805 16.7808 36.2376 14.9155 34.4753 12.2275C33.1462 10.1972 30.905 9.1682 27.809 9.1682C26.6151 9.1682 23.8789 9.1682 21.3008 10.8709C13.8623 11.0565 12.8976 14.7368 12.8976 17.9382C12.8976 18.6646 13.058 20.1931 13.1795 21.2427C12.7853 21.4077 12.4279 21.6574 12.1414 21.9852C11.6005 22.597 11.3508 23.4082 11.4516 24.2195L11.8756 27.6065C12.02 28.7706 12.8587 29.6987 13.9449 29.9943C14.3277 32.2607 15.423 34.472 16.9927 36.1426L16.4862 38.1684L10.1729 39.7449C8.89196 40.0634 7.69113 40.6546 6.63241 41.4613C4.26974 38.8305 2.72979 36.0074 2.72979 33.2299V8.87484L24.5 2.34379L46.2702 8.87484V33.2298Z" fill="black"/>
</svg>
