<svg width="515" height="337" viewBox="0 0 515 337" fill="none" xmlns="http://www.w3.org/2000/svg">
<path d="M309.615 0L491.204 73.7649C503.996 78.9612 510.154 93.5436 504.957 106.336L422.16 310.161C416.964 322.953 402.381 329.11 389.589 323.914L208 250.149L309.615 0Z" fill="#6925A6"/>
<path d="M309.615 0L471.748 65.8615C484.54 71.0578 490.698 85.6403 485.501 98.4322L402.704 302.257C397.508 315.049 382.925 321.207 370.133 316.01L208 250.149L309.615 0Z" fill="#FFFF00"/>
<rect x="254.959" y="219.574" width="136" height="13" transform="rotate(22.1079 254.959 219.574)" fill="#6925A6"/>
<circle cx="364.251" cy="131.21" r="60" transform="rotate(22.1079 364.251 131.21)" fill="#6925A6"/>
<path d="M141 6H337C350.807 6 362 17.1929 362 31V251C362 264.807 350.807 276 337 276H141V6Z" fill="white"/>
<path d="M141 6H316C329.807 6 341 17.1929 341 31V251C341 264.807 329.807 276 316 276H141V6Z" fill="#F30259"/>
<rect x="173" y="230" width="136" height="13" fill="#FFFF00"/>
<circle cx="241" cy="107" r="60" fill="#FFFF00"/>
<path d="M0 77.873L187.635 21.2255C200.853 17.2349 214.803 24.7152 218.794 37.9331L282.378 248.544C286.369 261.762 278.888 275.712 265.67 279.703L78.0349 336.35L0 77.873Z" fill="black"/>
<path d="M0 77.873L167.532 27.2948C180.749 23.3043 194.7 30.7846 198.69 44.0025L262.274 254.614C266.265 267.832 258.784 281.782 245.567 285.772L78.0349 336.35L0 77.873Z" fill="#6925A6"/>
<rect x="95.3745" y="283.064" width="136" height="13" transform="rotate(-16.7992 95.3745 283.064)" fill="white"/>
<circle cx="124.923" cy="145.661" r="56.5" transform="rotate(-16.7992 124.923 145.661)" stroke="white" stroke-width="7"/>
<path d="M70.3557 162.135L179.012 129.331" stroke="white" stroke-width="6"/>
<path d="M151.728 137.568C156.411 153.08 157.459 167.933 155.494 179.347C153.495 190.959 148.611 198.05 142.355 199.939C136.098 201.828 128.106 198.625 120.016 190.058C112.063 181.638 104.716 168.687 100.033 153.175C95.3496 137.663 94.3025 122.81 96.2671 111.395C98.2658 99.7833 103.15 92.6929 109.406 90.804C115.663 88.915 123.655 92.1183 131.745 100.685C139.698 109.105 147.045 122.056 151.728 137.568Z" stroke="white" stroke-width="6"/>
<path d="M109.984 92.7188L143.077 202.332" stroke="white" stroke-width="6"/>
</svg>
