<svg width="44" height="41" viewBox="0 0 44 41" fill="none" xmlns="http://www.w3.org/2000/svg">
<path d="M39.6666 0.166504H17.4444V7.11095H20.2222V2.94428H39.6666C40.4999 2.94428 41.0555 3.49984 41.0555 4.33317V19.6109C41.0555 20.4443 40.4999 20.9998 39.6666 20.9998H21.6111V30.7221H14.25L9.11109 34.7498V30.7221H4.94444C4.1111 30.7221 3.55555 30.1665 3.55555 29.3332V14.0554C3.55555 13.2221 4.1111 12.6665 4.94444 12.6665H23V9.88873H4.94444C2.58333 9.88873 0.777779 11.6943 0.777779 14.0554V29.3332C0.777779 31.6943 2.58333 33.4998 4.94444 33.4998H6.33332V40.5832L15.0833 33.4998H24.3888V23.7776H39.6666C42.0277 23.7776 43.8332 21.9721 43.8332 19.6109V4.33317C43.8332 1.97206 42.0277 0.166504 39.6666 0.166504Z" fill="#6925A6"/>
<path d="M6.61111 27.8054H9.94445L10.7778 25.5832H15.0833L15.9167 27.8054H19.25L14.5278 15.4443H11.1944L6.61111 27.8054ZM12.8611 18.9166L14.25 23.2221H11.4722L12.8611 18.9166Z" fill="#6925A6"/>
<path d="M25.7778 19.6113C27.3055 19.6113 29.3889 19.1946 31.3333 18.2224C33.2778 19.1946 35.5 19.6113 36.8889 19.6113V16.8335C36.8889 16.8335 35.5 16.8335 33.9722 16.2779C35.6389 14.6113 36.8889 12.1113 36.8889 8.50016V7.11127H32.7222V4.3335H29.9444V7.11127H25.7778V9.88905H33.9722C33.6944 12.3891 32.5833 13.9168 31.3333 14.8891C30.5 14.1946 29.6667 13.2224 29.1111 11.9724H26.1944C26.75 13.7779 27.5833 15.1668 28.6944 16.2779C27.3055 16.8335 26.0555 16.8335 25.7778 16.8335V19.6113Z" fill="#6925A6"/>
</svg>
