<svg width="39" height="43" viewBox="0 0 39 43" fill="none" xmlns="http://www.w3.org/2000/svg">
<path d="M25 6.80089V2C25 1.44772 24.5523 1 24 1H2C1.44772 1 1 1.44772 1 2V41C1 41.5523 1.44772 42 2 42H24C24.5523 42 25 41.5523 25 41V35.5" stroke="white" stroke-width="2" stroke-linecap="round"/>
<path d="M38.7071 22.7071C39.0976 22.3166 39.0976 21.6834 38.7071 21.2929L32.3431 14.9289C31.9526 14.5384 31.3195 14.5384 30.9289 14.9289C30.5384 15.3195 30.5384 15.9526 30.9289 16.3431L36.5858 22L30.9289 27.6569C30.5384 28.0474 30.5384 28.6805 30.9289 29.0711C31.3195 29.4616 31.9526 29.4616 32.3431 29.0711L38.7071 22.7071ZM12 23L38 23V21L12 21V23Z" fill="white"/>
</svg>
