<svg width="38" height="50" viewBox="0 0 38 50" fill="none" xmlns="http://www.w3.org/2000/svg">
<path d="M37.7 11.17C37.7 5 33.76 0 28.92 0C24.08 0 20.14 5 20.14 11.17C20.14 15.99 22.55 20.1 25.92 21.66V26C25.6548 26 25.4004 26.1054 25.2129 26.2929C25.0254 26.4804 24.92 26.7348 24.92 27V47C24.92 47.7957 25.2361 48.5587 25.7987 49.1213C26.3613 49.6839 27.1244 50 27.92 50H29.92C30.7157 50 31.4787 49.6839 32.0413 49.1213C32.6039 48.5587 32.92 47.7957 32.92 47V27C32.92 26.7348 32.8147 26.4804 32.6271 26.2929C32.4396 26.1054 32.1852 26 31.92 26V21.69C35.28 20.1 37.7 16 37.7 11.17ZM30.92 47C30.92 47.2652 30.8147 47.5196 30.6271 47.7071C30.4396 47.8946 30.1852 48 29.92 48H27.92C27.6548 48 27.4004 47.8946 27.2129 47.7071C27.0254 47.5196 26.92 47.2652 26.92 47V28H30.92V47ZM29.92 26H27.92V22.27C28.2508 22.3223 28.5851 22.349 28.92 22.35C29.2549 22.3482 29.5891 22.3215 29.92 22.27V26ZM28.92 20.35C25.18 20.35 22.14 16.23 22.14 11.17C22.14 6.11 25.18 2 28.92 2C32.66 2 35.7 6.11 35.7 11.17C35.7 16.23 32.65 20.35 28.92 20.35Z" fill="black"/>
<path d="M18.3 13V3.5C18.3 2.83696 18.0367 2.20107 17.5678 1.73223C17.099 1.26339 16.4631 1 15.8 1C15.137 1 14.5011 1.26339 14.0323 1.73223C13.5634 2.20107 13.3 2.83696 13.3 3.5V12H11.8V3.5C11.8 2.83696 11.5367 2.20107 11.0678 1.73223C10.599 1.26339 9.96309 1 9.30005 1C8.63701 1 8.00112 1.26339 7.53228 1.73223C7.06344 2.20107 6.80005 2.83696 6.80005 3.5V12H5.30005V3.5C5.30005 2.83696 5.03666 2.20107 4.56781 1.73223C4.09897 1.26339 3.46309 1 2.80005 1C2.13701 1 1.50112 1.26339 1.03228 1.73223C0.563441 2.20107 0.300049 2.83696 0.300049 3.5V13C0.393542 14.8643 1.0044 16.6657 2.06415 18.2023C3.1239 19.739 4.59066 20.9501 6.30005 21.7C6.29522 21.7566 6.29522 21.8134 6.30005 21.87V26C6.03483 26 5.78048 26.1054 5.59294 26.2929C5.40541 26.4804 5.30005 26.7348 5.30005 27V47C5.30005 47.7957 5.61612 48.5587 6.17873 49.1213C6.74134 49.6839 7.5044 50 8.30005 50H10.3C11.0957 50 11.8588 49.6839 12.4214 49.1213C12.984 48.5587 13.3 47.7957 13.3 47V27C13.3 26.7348 13.1947 26.4804 13.0072 26.2929C12.8196 26.1054 12.5653 26 12.3 26V21.87C12.3049 21.8134 12.3049 21.7566 12.3 21.7C14.0129 20.9549 15.4828 19.745 16.5432 18.2074C17.6037 16.6697 18.2123 14.8658 18.3 13ZM11.3 47C11.3 47.2652 11.1947 47.5196 11.0072 47.7071C10.8196 47.8946 10.5653 48 10.3 48H8.30005C8.03483 48 7.78048 47.8946 7.59294 47.7071C7.40541 47.5196 7.30005 47.2652 7.30005 47V28H11.3V47ZM10.3 26H8.30005V22.27C8.63154 22.3161 8.96544 22.3428 9.30005 22.35C9.63469 22.3436 9.96864 22.3169 10.3 22.27V26ZM9.30005 20.35C5.84005 20.35 2.30005 16.64 2.30005 13V3.5C2.30005 3.36739 2.35273 3.24021 2.4465 3.14645C2.54026 3.05268 2.66744 3 2.80005 3C2.93266 3 3.05983 3.05268 3.1536 3.14645C3.24737 3.24021 3.30005 3.36739 3.30005 3.5V13C3.30005 13.2652 3.40541 13.5196 3.59294 13.7071C3.78048 13.8946 4.03483 14 4.30005 14H7.80005C8.06526 14 8.31962 13.8946 8.50716 13.7071C8.69469 13.5196 8.80005 13.2652 8.80005 13V3.5C8.80005 3.36739 8.85273 3.24021 8.9465 3.14645C9.04026 3.05268 9.16744 3 9.30005 3C9.43266 3 9.55983 3.05268 9.6536 3.14645C9.74737 3.24021 9.80005 3.36739 9.80005 3.5V13C9.80005 13.2652 9.90541 13.5196 10.0929 13.7071C10.2805 13.8946 10.5348 14 10.8 14H14.3C14.5653 14 14.8196 13.8946 15.0072 13.7071C15.1947 13.5196 15.3 13.2652 15.3 13V3.5C15.3 3.36739 15.3527 3.24021 15.4465 3.14645C15.5403 3.05268 15.6674 3 15.8 3C15.9327 3 16.0598 3.05268 16.1536 3.14645C16.2474 3.24021 16.3 3.36739 16.3 3.5V13C16.3 16.64 12.77 20.35 9.30005 20.35Z" fill="black"/>
</svg>
