<svg width="350" height="350" viewBox="0 0 350 350" fill="none" xmlns="http://www.w3.org/2000/svg">
<circle cx="175" cy="175" r="175" fill="#FF7121"/>
<rect x="30" y="138" width="134" height="212" rx="25" fill="white"/>
<path d="M50 194C50 180.193 61.1929 169 75 169H119C132.807 169 144 180.193 144 194V201H50V194Z" fill="#FFFF00"/>
<path d="M50 303C50 315.15 59.8497 325 72 325H122C134.15 325 144 315.15 144 303V303H50V303Z" fill="#FFFF00"/>
<rect x="50" y="211" width="94" height="81" fill="#FFFF00"/>
<path d="M67 117V138H76.5V117H116V138H126.5V117C126.5 111.477 122.023 107 116.5 107H77C71.4772 107 67 111.477 67 117Z" fill="white"/>
<rect x="81" y="107" width="30" height="10" fill="#263238"/>
<rect x="127" y="220" width="219" height="130" rx="25" fill="#263238"/>
<rect x="127" y="220" width="195" height="130" rx="25" fill="#6925A6"/>
<rect x="127" y="301" width="195" height="6" fill="black"/>
<rect x="322" y="301" width="24" height="6" fill="#6925A6"/>
<circle cx="295" cy="252" r="15" fill="#FFFF00"/>
<rect x="182" y="237" width="26" height="83" fill="#FF0000"/>
<path d="M208 237H182V265.5L195 278L208 265.5V237Z" fill="white"/>
<path d="M198 199V220H210.294V199H261.412V220H275V199C275 193.477 270.523 189 265 189H208C202.477 189 198 193.477 198 199Z" fill="#6925A6"/>
<rect x="213" y="189" width="46" height="10" fill="#263238"/>
</svg>
