<svg width="40" height="40" viewBox="0 0 40 40" fill="none" xmlns="http://www.w3.org/2000/svg">
<path d="M31.0371 39.9876C31.037 39.9876 31.0367 39.9876 31.0366 39.9876C28.7235 39.9876 20.4136 39.2243 10.595 29.4088C2.33672 21.1469 -0.695151 14.9809 0.13141 8.12666C0.231175 7.22697 0.455394 6.32611 0.816799 5.37283C0.818518 5.36838 0.820158 5.36385 0.822033 5.35924C1.20703 4.37557 1.74469 3.42862 2.37672 2.62049C2.40812 2.58026 2.44187 2.54182 2.47781 2.50549L3.32429 1.64542C4.36109 0.59245 5.74577 0.0124512 7.22366 0.0124512C8.68499 0.0124512 10.059 0.581513 11.0923 1.61479L14.2687 4.79127C15.3021 5.82463 15.8712 7.19845 15.8712 8.65994C15.8712 10.1214 15.302 11.4952 14.2687 12.5286L14.0583 12.7391C14.0484 12.7489 14.0385 12.7586 14.0283 12.7681L12.749 13.9704C13.7986 15.7454 16.065 18.9952 18.5414 21.4726C21.0526 23.9838 24.3969 26.2958 26.151 27.3178L27.6049 25.8641C28.6382 24.8308 30.0121 24.2619 31.4735 24.2619C32.9349 24.2619 34.3088 24.831 35.3421 25.8643L38.3978 28.92C39.4374 29.9596 40.0063 31.3416 40.0002 32.8117C39.994 34.2819 39.4133 35.6592 38.3648 36.6899L37.5045 37.5358C37.469 37.5708 37.4316 37.6037 37.3923 37.6345C36.5801 38.2726 35.633 38.8124 34.6535 39.1952C33.5916 39.6061 32.6695 39.8532 31.8301 39.9521C31.7498 39.9614 31.4805 39.9876 31.0371 39.9876ZM3.33265 6.33424C3.05336 7.07228 2.88156 7.75759 2.80758 8.429C2.80703 8.43369 2.80648 8.43845 2.80594 8.44314C2.08852 14.3761 4.89687 19.8984 12.4996 27.5046C21.5861 36.5881 28.9854 37.2944 31.0368 37.2944C31.037 37.2944 31.037 37.2944 31.0372 37.2944C31.355 37.2944 31.5223 37.2769 31.5238 37.2768C32.1263 37.2057 32.8337 37.0119 33.6774 36.6854C34.3875 36.4079 35.0768 36.0195 35.6717 35.5611L36.4766 34.7697C37.0089 34.2462 37.3038 33.5469 37.3069 32.8005C37.31 32.0541 37.0211 31.3522 36.4933 30.8245L33.4376 27.7688C32.913 27.2442 32.2152 26.9552 31.4733 26.9552C30.7313 26.9552 30.0338 27.2442 29.509 27.7687L27.3417 29.9358C26.9195 30.3583 26.2692 30.4516 25.7453 30.166C25.6749 30.1277 25.6022 30.0897 25.5282 30.0506C25.402 29.9842 25.2723 29.9158 25.1418 29.8424C23.3052 28.824 19.5172 26.2573 16.6368 23.3769C13.7579 20.4969 11.1358 16.6292 10.1559 14.8625C10.075 14.7196 10.0197 14.604 9.97522 14.5106C9.95069 14.4592 9.92701 14.4079 9.89412 14.3486C9.59662 13.8098 9.70225 13.138 10.1507 12.7165L12.1686 10.8201L12.3642 10.6243C12.8888 10.0997 13.1779 9.40197 13.1779 8.66002C13.1779 7.91791 12.889 7.22049 12.3644 6.69572L9.18787 3.51932C8.66327 2.99471 7.96569 2.70573 7.22374 2.70573C6.47343 2.70573 5.77007 3.00026 5.24382 3.53495L4.4532 4.33807C4.00085 4.92838 3.61414 5.6169 3.33265 6.33424Z" fill="#6925A6"/>
</svg>
