<svg width="60" height="28" viewBox="0 0 60 28" fill="none" xmlns="http://www.w3.org/2000/svg">
<path d="M58.6381 17.8659H38.1382C38.1491 17.6454 38.1565 17.4234 38.1565 17.1994C38.1565 15.6421 37.8859 14.1649 37.4047 12.837H45.6601C46.4123 12.837 47.0218 12.2272 47.0218 11.4752C47.0218 10.723 46.4121 10.1135 45.6601 10.1135H35.9732C34.7761 8.46746 33.1691 7.31627 31.3614 6.92619V1.73986C31.3614 0.987648 30.7517 0.37793 29.9996 0.37793C29.2474 0.37793 28.6379 0.987648 28.6379 1.73986V6.92601C26.8303 7.31591 25.2234 8.46709 24.0264 10.1133H14.339C13.5868 10.1133 12.9773 10.723 12.9773 11.475C12.9773 12.2272 13.587 12.8368 14.339 12.8368H22.595C22.1138 14.1648 21.8431 15.6421 21.8431 17.1992C21.8431 17.4232 21.8506 17.6452 21.8615 17.8657H1.36175C0.609537 17.8657 0 18.4754 0 19.2275C0 19.9797 0.609718 20.5894 1.36175 20.5894H8.55421C8.42297 20.9835 8.35091 21.4044 8.35091 21.8419C8.35091 24.0343 10.1347 25.8177 12.3271 25.8177C14.5193 25.8177 16.3027 24.0341 16.3027 21.8419C16.3027 21.4042 16.2306 20.9833 16.0994 20.5894H22.2886C23.3922 24.6761 26.4308 27.621 29.9995 27.621C33.5683 27.621 36.6071 24.6761 37.7109 20.5894H43.9003C43.769 20.9835 43.697 21.4044 43.697 21.8419C43.697 24.0343 45.4806 25.8177 47.6729 25.8177C49.8651 25.8177 51.6485 24.0341 51.6485 21.8419C51.6485 21.4042 51.5765 20.9833 51.4452 20.5894H58.6377C59.3899 20.5894 59.9995 19.9797 59.9995 19.2275C60 18.4756 59.3903 17.8659 58.6381 17.8659ZM13.579 21.8421C13.579 22.5326 13.0174 23.0942 12.3271 23.0942C11.6364 23.0942 11.0746 22.5324 11.0746 21.8421C11.0746 21.1514 11.6364 20.5896 12.3271 20.5896C13.0174 20.5896 13.579 21.1514 13.579 21.8421ZM29.9996 24.8976C27.004 24.8976 24.567 21.4442 24.567 17.1994C24.567 12.9548 27.004 9.50156 29.9996 9.50156C32.9956 9.50156 35.433 12.9548 35.433 17.1994C35.433 21.4442 32.9956 24.8976 29.9996 24.8976ZM48.9252 21.8421C48.9252 22.5326 48.3636 23.0942 47.6733 23.0942C46.9828 23.0942 46.421 22.5324 46.421 21.8421C46.421 21.1514 46.9828 20.5896 47.6733 20.5896C48.3636 20.5896 48.9252 21.1514 48.9252 21.8421Z" fill="black"/>
<path d="M32.3321 12.7275H27.5812C26.829 12.7275 26.2195 13.3373 26.2195 14.0895C26.2195 14.8415 26.8292 15.4512 27.5812 15.4512H32.3321C33.0843 15.4512 33.694 14.8415 33.694 14.0895C33.694 13.3373 33.0843 12.7275 32.3321 12.7275Z" fill="black"/>
</svg>
