<svg width="31" height="31" viewBox="0 0 31 31" fill="none" xmlns="http://www.w3.org/2000/svg">
<path d="M24.5578 8.80109C24.5578 5.8125 22.6493 3.39062 20.3049 3.39062C17.9606 3.39062 16.0521 5.8125 16.0521 8.80109C16.0521 11.1358 17.2195 13.1266 18.8518 13.8822V15.9844C18.7233 15.9844 18.6001 16.0354 18.5093 16.1262C18.4185 16.2171 18.3674 16.3403 18.3674 16.4688V26.1562C18.3674 26.5416 18.5205 26.9112 18.793 27.1838C19.0656 27.4563 19.4352 27.6094 19.8206 27.6094H20.7893C21.1747 27.6094 21.5443 27.4563 21.8168 27.1838C22.0893 26.9112 22.2424 26.5416 22.2424 26.1562V16.4688C22.2424 16.3403 22.1914 16.2171 22.1006 16.1262C22.0097 16.0354 21.8865 15.9844 21.7581 15.9844V13.8967C23.3856 13.1266 24.5578 11.1406 24.5578 8.80109ZM21.2737 26.1562C21.2737 26.2847 21.2227 26.4079 21.1318 26.4988C21.041 26.5896 20.9178 26.6406 20.7893 26.6406H19.8206C19.6921 26.6406 19.5689 26.5896 19.4781 26.4988C19.3872 26.4079 19.3362 26.2847 19.3362 26.1562V16.9531H21.2737V26.1562ZM20.7893 15.9844H19.8206V14.1777C19.9808 14.203 20.1427 14.2159 20.3049 14.2164C20.4671 14.2155 20.629 14.2026 20.7893 14.1777V15.9844ZM20.3049 13.2477C18.4934 13.2477 17.0209 11.252 17.0209 8.80109C17.0209 6.35016 18.4934 4.35938 20.3049 4.35938C22.1165 4.35938 23.589 6.35016 23.589 8.80109C23.589 11.252 22.1117 13.2477 20.3049 13.2477Z" fill="black"/>
<path d="M15.1609 9.6875V5.08594C15.1609 4.76478 15.0333 4.45677 14.8062 4.22968C14.5791 4.00258 14.2711 3.875 13.95 3.875C13.6288 3.875 13.3208 4.00258 13.0937 4.22968C12.8666 4.45677 12.739 4.76478 12.739 5.08594V9.20312H12.0125V5.08594C12.0125 4.76478 11.8849 4.45677 11.6578 4.22968C11.4307 4.00258 11.1227 3.875 10.8015 3.875C10.4804 3.875 10.1723 4.00258 9.94525 4.22968C9.71816 4.45677 9.59058 4.76478 9.59058 5.08594V9.20312H8.86401V5.08594C8.86401 4.76478 8.73643 4.45677 8.50934 4.22968C8.28224 4.00258 7.97424 3.875 7.65308 3.875C7.33192 3.875 7.02391 4.00258 6.79681 4.22968C6.56972 4.45677 6.44214 4.76478 6.44214 5.08594V9.6875C6.48742 10.5905 6.78331 11.4631 7.29662 12.2074C7.80994 12.9517 8.5204 13.5383 9.34839 13.9016C9.34605 13.929 9.34605 13.9565 9.34839 13.9839V15.9844C9.21992 15.9844 9.09672 16.0354 9.00588 16.1262C8.91505 16.2171 8.86401 16.3403 8.86401 16.4688V26.1562C8.86401 26.5416 9.01711 26.9112 9.28962 27.1838C9.56214 27.4563 9.93175 27.6094 10.3171 27.6094H11.2859C11.6713 27.6094 12.0409 27.4563 12.3134 27.1838C12.5859 26.9112 12.739 26.5416 12.739 26.1562V16.4688C12.739 16.3403 12.688 16.2171 12.5971 16.1262C12.5063 16.0354 12.3831 15.9844 12.2546 15.9844V13.9839C12.257 13.9565 12.257 13.929 12.2546 13.9016C13.0843 13.5407 13.7963 12.9546 14.3099 12.2098C14.8236 11.465 15.1184 10.5912 15.1609 9.6875ZM11.7703 26.1562C11.7703 26.2847 11.7192 26.4079 11.6284 26.4988C11.5376 26.5896 11.4144 26.6406 11.2859 26.6406H10.3171C10.1887 26.6406 10.0655 26.5896 9.97463 26.4988C9.8838 26.4079 9.83276 26.2847 9.83276 26.1562V16.9531H11.7703V26.1562ZM11.2859 15.9844H10.3171V14.1777C10.4777 14.2 10.6394 14.2129 10.8015 14.2164C10.9636 14.2133 11.1254 14.2004 11.2859 14.1777V15.9844ZM10.8015 13.2477C9.12558 13.2477 7.41089 11.4506 7.41089 9.6875V5.08594C7.41089 5.02171 7.4364 4.9601 7.48182 4.91468C7.52724 4.86927 7.58884 4.84375 7.65308 4.84375C7.71731 4.84375 7.77891 4.86927 7.82433 4.91468C7.86975 4.9601 7.89526 5.02171 7.89526 5.08594V9.6875C7.89526 9.81596 7.9463 9.93917 8.03713 10.03C8.12797 10.1208 8.25117 10.1719 8.37964 10.1719H10.075C10.2034 10.1719 10.3266 10.1208 10.4175 10.03C10.5083 9.93917 10.5593 9.81596 10.5593 9.6875V5.08594C10.5593 5.02171 10.5848 4.9601 10.6303 4.91468C10.6757 4.86927 10.7373 4.84375 10.8015 4.84375C10.8657 4.84375 10.9273 4.86927 10.9728 4.91468C11.0182 4.9601 11.0437 5.02171 11.0437 5.08594V9.6875C11.0437 9.81596 11.0947 9.93917 11.1856 10.03C11.2764 10.1208 11.3996 10.1719 11.5281 10.1719H13.2234C13.3519 10.1719 13.4751 10.1208 13.5659 10.03C13.6567 9.93917 13.7078 9.81596 13.7078 9.6875V5.08594C13.7078 5.02171 13.7333 4.9601 13.7787 4.91468C13.8241 4.86927 13.8857 4.84375 13.95 4.84375C14.0142 4.84375 14.0758 4.86927 14.1212 4.91468C14.1666 4.9601 14.1921 5.02171 14.1921 5.08594V9.6875C14.1921 11.4506 12.4823 13.2477 10.8015 13.2477Z" fill="black"/>
</svg>
