<svg width="50" height="48" viewBox="0 0 50 48" fill="none" xmlns="http://www.w3.org/2000/svg">
<path d="M45.6895 11.6069C47.0626 8.59502 48.4676 5.59741 49.8756 2.60183C50.3009 1.69695 49.5872 0.409859 48.4729 0.777173C44.8543 1.96978 41.2212 2.97379 37.4714 3.66565C36.8885 3.77323 36.4635 4.53872 36.6626 5.08999C37.0866 6.2627 38.4641 6.65301 39.9078 6.75416C38.7498 7.88708 37.619 9.04073 36.4754 10.1011C34.0376 12.3613 31.2464 14.5401 29.1703 17.1855C26.6031 15.5184 23.2953 13.9994 20.1959 13.6614C19.7977 13.4589 19.3415 13.4165 18.9083 13.6202C18.6438 13.6937 18.4248 13.8825 18.2813 14.1205C15.243 17.6091 12.1313 21.0331 8.92291 24.3667C7.62223 25.7184 5.61458 27.215 4.12078 28.8982C4.13078 23.7553 4.01843 18.6255 3.41772 13.6072C3.26153 12.3013 1.09374 11.6659 0.856053 13.2605C-0.700058 23.6996 0.280598 34.8638 0.586078 45.3813C0.624322 46.6863 1.80847 47.2158 2.79425 47.0141C17.1423 47.7841 31.7265 46.6611 46.115 46.8486C48.3805 46.878 48.3818 43.3582 46.115 43.3294C45.4072 43.3205 44.6852 43.3059 43.9745 43.2956C43.7712 32.2325 43.5773 21.1264 43.0972 10.0674C43.2742 10.4882 43.4574 10.9094 43.6267 11.3373C43.9399 12.1289 45.2425 12.5872 45.6895 11.6069ZM4.08217 43.9836C4.01272 40.4717 4.05584 36.919 4.09087 33.3595C5.38034 32.9809 6.5745 32.0402 7.68133 30.9457C7.21799 35.133 7.54718 39.474 7.6967 43.6494C6.48955 43.7518 5.28098 43.8487 4.08217 43.9836ZM8.72477 43.5545C8.40988 39.0546 8.76361 34.5303 8.55464 30.0401C9.59141 28.9069 10.5436 27.7203 11.3964 26.8398C12.3672 25.8377 13.3108 24.8106 14.2624 23.7911C13.6452 30.1745 14.1249 36.8395 14.4392 43.2244C12.5285 43.3062 10.6216 43.4073 8.72477 43.5545ZM19.7471 43.099C18.4408 43.1227 17.1319 43.1274 15.8292 43.1739C15.4851 36.3754 15.8038 29.4929 15.2609 22.7289C16.9577 20.8889 18.6301 19.0267 20.2765 17.1402C19.8487 25.7647 19.8637 34.4664 19.7471 43.099ZM27.7024 43.0563C25.5059 43.0433 23.3083 43.0445 21.1133 43.0728C21.4826 34.4996 21.7423 25.7696 21.3303 17.1869C21.9178 17.4913 22.4995 17.7965 23.1272 18.0799C24.7883 18.8301 26.3853 19.7262 28.069 20.4206C27.7005 27.9395 27.8103 35.5285 27.7024 43.0563ZM34.6113 43.1497C32.7657 43.1205 30.9221 43.0875 29.0716 43.0715C29.3317 35.629 29.5508 28.0367 29.0661 20.5937C29.2939 20.547 29.4956 20.4403 29.6672 20.2926C29.7577 20.2684 29.8492 20.2501 29.9365 20.2025C31.824 19.1772 33.5114 17.7506 35.1246 16.2395C34.7014 25.1931 34.7493 34.1893 34.6113 43.1497ZM35.9984 43.1693C35.988 33.9746 36.1817 24.743 35.8525 15.5527C36.8986 14.5476 37.9192 13.5253 38.9481 12.5733C40.0314 11.5702 41.1887 10.5781 42.3343 9.56841C42.0794 20.7869 42.1274 32.0488 42.1623 43.267C40.1095 43.2343 38.0648 43.2039 35.9984 43.1693Z" fill="#6925A6"/>
</svg>
