<svg width="45" height="45" viewBox="0 0 45 45" fill="none" xmlns="http://www.w3.org/2000/svg">
<defs>
<linearGradient id="paint0_linear_446_311" x1="22.4906" y1="0" x2="22.4906" y2="44.6626" gradientUnits="userSpaceOnUse">
<stop stop-color="#2AABEE"/>
<stop offset="1" stop-color="#229ED9"/>
</linearGradient>
</defs>
<path d="M22.5094 45.0187C34.941 45.0187 45.0187 34.941 45.0187 22.5094C45.0187 10.0778 34.941 0 22.5094 0C10.0778 0 0 10.0778 0 22.5094C0 34.941 10.0778 45.0187 22.5094 45.0187Z" fill="url(#paint0_linear_446_311)"/>
<path fill-rule="evenodd" clip-rule="evenodd" d="M10.177 22.2656C16.7368 19.4168 21.1037 17.5238 23.2965 16.6055C29.5377 14.0003 30.8496 13.5505 31.693 13.5317C31.8804 13.5317 32.2928 13.5692 32.5739 13.7941C32.7988 13.9816 32.855 14.2252 32.8925 14.4126C32.93 14.6 32.9675 14.9936 32.93 15.2935C32.5927 18.8545 31.1308 27.4947 30.3811 31.468C30.0625 33.1548 29.444 33.7171 28.8442 33.7733C27.5323 33.8858 26.5389 32.9112 25.2832 32.0865C23.2965 30.7933 22.1907 29.9874 20.2603 28.7129C18.03 27.251 19.4731 26.4451 20.7476 25.1332C21.0849 24.7958 26.8388 19.548 26.9513 19.0794C26.97 19.0232 26.97 18.7983 26.8388 18.6858C26.7076 18.5734 26.5202 18.6109 26.3702 18.6484C26.1641 18.6858 23.0154 20.785 16.8867 24.927C15.9871 25.5455 15.1812 25.8454 14.4502 25.8266C13.6443 25.8079 12.1074 25.3768 10.9454 25.002C9.53976 24.5521 8.41523 24.3085 8.50894 23.5213C8.56517 23.109 9.12743 22.6967 10.177 22.2656Z" fill="white"/>

</svg>
