<svg width="31" height="26" viewBox="0 0 31 26" fill="none" xmlns="http://www.w3.org/2000/svg">
<path d="M30.9702 11.2447L27.3977 1.31473C27.2943 1.02757 26.9528 0.8704 26.6347 0.963641L0.418488 8.65842C0.100499 8.75177 -0.0735107 9.06032 0.0297813 9.34759L1.72084 14.0479C1.72035 14.0571 1.71933 14.0661 1.71933 14.0754V24.5165C1.71933 24.8185 1.99045 25.0634 2.32479 25.0634H29.8905C30.2248 25.0634 30.4959 24.8185 30.4959 24.5165V14.0754C30.4959 13.7734 30.2248 13.5285 29.8905 13.5285H25.1485L30.5816 11.9338C30.8995 11.8405 31.0735 11.5319 30.9702 11.2447ZM29.285 14.6223V23.9696H2.93019V14.6223H6.28397V20.7148C6.28397 21.0168 6.5551 21.2617 6.88943 21.2617C7.22377 21.2617 7.4949 21.0168 7.4949 20.7148V14.6223H21.3261H29.285ZM21.2302 13.5285H2.80722L1.36852 9.52964L4.55998 8.59291L5.78071 11.9439C5.86457 12.174 6.10136 12.32 6.35572 12.32C6.41844 12.32 6.48226 12.3111 6.54511 12.2924C6.86273 12.198 7.03553 11.8889 6.93097 11.602L5.71163 8.25483L26.4331 2.17282L29.6315 11.0626L21.2302 13.5285Z" fill="black"/>
<path d="M25.5145 4.56984C25.4111 4.28268 25.0696 4.12556 24.7515 4.21875L8.96539 8.85221C8.6474 8.94556 8.47339 9.2541 8.57669 9.54137C8.65988 9.77248 8.89716 9.91937 9.15242 9.91937C9.21442 9.91937 9.27751 9.91068 9.33969 9.89246L25.1258 5.259C25.4438 5.16565 25.6179 4.85711 25.5145 4.56984Z" fill="black"/>
<path d="M22.8522 8.12213L25.8403 7.24511C26.1583 7.15176 26.3323 6.84322 26.229 6.55595C26.1256 6.26873 25.784 6.11162 25.466 6.20486L22.4779 7.08187C22.1599 7.17522 21.9859 7.48377 22.0892 7.77104C22.1724 8.00214 22.4097 8.14903 22.6649 8.14903C22.7269 8.14903 22.7901 8.14034 22.8522 8.12213Z" fill="black"/>
<path d="M25.3776 10.6342C25.4607 10.8653 25.698 11.0122 25.9533 11.0122C26.0152 11.0122 26.0784 11.0035 26.1406 10.9853L27.0861 10.7078C27.4041 10.6144 27.5782 10.3059 27.4748 10.0186C27.3714 9.7314 27.0299 9.57423 26.7118 9.66752L25.7663 9.94506C25.4483 10.0384 25.2742 10.347 25.3776 10.6342Z" fill="black"/>
<path d="M23.6545 10.565L22.7089 10.8425C22.3909 10.9359 22.2169 11.2444 22.3202 11.5317C22.4033 11.7628 22.6407 11.9097 22.8959 11.9097C22.9579 11.9097 23.021 11.901 23.0832 11.8828L24.0288 11.6052C24.3468 11.5119 24.5208 11.2033 24.4175 10.9161C24.3142 10.6288 23.9729 10.4717 23.6545 10.565Z" fill="black"/>
<path d="M15.2051 9.21658L9.67996 10.8383C9.36197 10.9316 9.1879 11.2401 9.29125 11.5274C9.37444 11.7585 9.61172 11.9054 9.86698 11.9054C9.92892 11.9054 9.99207 11.8967 10.0543 11.8785L15.5794 10.2568C15.8974 10.1635 16.0714 9.85493 15.9681 9.56766C15.8646 9.28045 15.5231 9.12333 15.2051 9.21658Z" fill="black"/>
<path d="M6.88943 21.9885C6.55509 21.9885 6.28397 22.2334 6.28397 22.5354V22.7496C6.28397 23.0515 6.55509 23.2964 6.88943 23.2964C7.22376 23.2964 7.49489 23.0515 7.49489 22.7496V22.5354C7.49489 22.2334 7.22376 21.9885 6.88943 21.9885Z" fill="black"/>
<path d="M9.78149 16.6455C9.78149 16.9475 10.0526 17.1924 10.387 17.1924H26.9856C27.3199 17.1924 27.5911 16.9475 27.5911 16.6455C27.5911 16.3435 27.3199 16.0986 26.9856 16.0986H10.387C10.0526 16.0986 9.78149 16.3435 9.78149 16.6455Z" fill="black"/>
<path d="M26.9856 18.1868H23.8437C23.5094 18.1868 23.2383 18.4317 23.2383 18.7336C23.2383 19.0356 23.5094 19.2805 23.8437 19.2805H26.9856C27.32 19.2805 27.5911 19.0356 27.5911 18.7336C27.5911 18.4317 27.32 18.1868 26.9856 18.1868Z" fill="black"/>
<path d="M26.9856 21.8279H25.9914C25.657 21.8279 25.3859 22.0728 25.3859 22.3748C25.3859 22.6767 25.657 22.9216 25.9914 22.9216H26.9856C27.32 22.9216 27.5911 22.6767 27.5911 22.3748C27.5911 22.0728 27.32 21.8279 26.9856 21.8279Z" fill="black"/>
<path d="M23.771 21.8279H22.7767C22.4424 21.8279 22.1713 22.0728 22.1713 22.3748C22.1713 22.6767 22.4424 22.9216 22.7767 22.9216H23.771C24.1053 22.9216 24.3764 22.6767 24.3764 22.3748C24.3764 22.0728 24.1054 21.8279 23.771 21.8279Z" fill="black"/>
<path d="M16.1966 18.1868H10.387C10.0527 18.1868 9.78156 18.4317 9.78156 18.7336C9.78156 19.0356 10.0527 19.2805 10.387 19.2805H16.1966C16.5309 19.2805 16.802 19.0356 16.802 18.7336C16.802 18.4317 16.5309 18.1868 16.1966 18.1868Z" fill="black"/>
</svg>
