<svg width="45" height="39" viewBox="0 0 45 39" fill="none" xmlns="http://www.w3.org/2000/svg">
<path d="M44.9568 16.6788L39.7708 0.71999C39.6207 0.258482 39.125 0.00588624 38.6632 0.155738L0.607498 12.5224C0.145901 12.6724 -0.106694 13.1683 0.0432461 13.6299L2.49801 21.184C2.4973 21.1987 2.49581 21.2132 2.49581 21.2282V38.0085C2.49581 38.4939 2.88938 38.8874 3.37471 38.8874H43.3894C43.8747 38.8874 44.2683 38.4939 44.2683 38.0085V21.2282C44.2683 20.7429 43.8747 20.3493 43.3894 20.3493H36.5059L44.3926 17.7864C44.8541 17.6364 45.1067 17.1405 44.9568 16.6788ZM42.5104 22.1071V37.1296H4.25352V22.1071H9.12191V31.8987C9.12191 32.384 9.51548 32.7776 10.0008 32.7776C10.4861 32.7776 10.8797 32.384 10.8797 31.8987V22.1071H30.9573H42.5104ZM30.8181 20.3493H4.07501L1.98658 13.9225L6.61933 12.4171L8.39137 17.8026C8.51309 18.1724 8.85683 18.407 9.22606 18.407C9.31711 18.407 9.40975 18.3928 9.50098 18.3627C9.96204 18.2109 10.2129 17.7143 10.0611 17.2531L8.29109 11.8737L38.3707 2.09907L43.0134 16.3862L30.8181 20.3493Z" fill="#6925A6"/>
<path d="M37.0372 5.9514C36.8871 5.48989 36.3913 5.23739 35.9296 5.38715L13.0143 12.8338C12.5527 12.9838 12.3001 13.4797 12.45 13.9414C12.5708 14.3128 12.9152 14.5489 13.2858 14.5489C13.3758 14.5489 13.4674 14.5349 13.5576 14.5056L36.4729 7.05899C36.9345 6.90896 37.1872 6.41309 37.0372 5.9514Z" fill="#6925A6"/>
<path d="M33.1726 11.6603L37.5101 10.2508C37.9717 10.1008 38.2243 9.6049 38.0744 9.14322C37.9242 8.68162 37.4285 8.42911 36.9668 8.57896L32.6293 9.98845C32.1677 10.1385 31.9151 10.6344 32.065 11.096C32.1858 11.4675 32.5302 11.7035 32.9007 11.7035C32.9907 11.7035 33.0824 11.6896 33.1726 11.6603Z" fill="#6925A6"/>
<path d="M36.8384 15.6977C36.9591 16.0691 37.3036 16.3052 37.6741 16.3052C37.764 16.3052 37.8557 16.2912 37.946 16.2619L39.3185 15.8159C39.7801 15.6659 40.0328 15.17 39.8828 14.7083C39.7327 14.2467 39.237 13.9941 38.7752 14.1441L37.4026 14.5901C36.941 14.7401 36.6884 15.236 36.8384 15.6977Z" fill="#6925A6"/>
<path d="M34.3372 15.5863L32.9646 16.0323C32.503 16.1824 32.2503 16.6782 32.4003 17.1399C32.521 17.5113 32.8655 17.7474 33.236 17.7474C33.326 17.7474 33.4175 17.7334 33.5079 17.7042L34.8806 17.2581C35.3422 17.1081 35.5947 16.6122 35.4448 16.1505C35.2949 15.6889 34.7994 15.4364 34.3372 15.5863Z" fill="#6925A6"/>
<path d="M22.0719 13.4193L14.0516 16.0256C13.59 16.1756 13.3373 16.6715 13.4873 17.1332C13.6081 17.5046 13.9525 17.7406 14.3231 17.7406C14.413 17.7406 14.5046 17.7267 14.5949 17.6974L22.6153 15.0911C23.0769 14.9411 23.3295 14.4452 23.1795 13.9835C23.0293 13.522 22.5335 13.2694 22.0719 13.4193Z" fill="#6925A6"/>
<path d="M10.0008 33.9457C9.51549 33.9457 9.12192 34.3393 9.12192 34.8246V35.1688C9.12192 35.6541 9.51549 36.0477 10.0008 36.0477C10.4861 36.0477 10.8797 35.6541 10.8797 35.1688V34.8246C10.8797 34.3393 10.4861 33.9457 10.0008 33.9457Z" fill="#6925A6"/>
<path d="M14.1989 25.3587C14.1989 25.8441 14.5925 26.2376 15.0778 26.2376H39.1726C39.658 26.2376 40.0515 25.8441 40.0515 25.3587C40.0515 24.8734 39.658 24.4799 39.1726 24.4799H15.0778C14.5925 24.4799 14.1989 24.8733 14.1989 25.3587Z" fill="#6925A6"/>
<path d="M39.1727 27.8358H34.6119C34.1265 27.8358 33.733 28.2294 33.733 28.7147C33.733 29.2 34.1265 29.5936 34.6119 29.5936H39.1727C39.6581 29.5936 40.0516 29.2 40.0516 28.7147C40.0516 28.2294 39.6581 27.8358 39.1727 27.8358Z" fill="#6925A6"/>
<path d="M39.1727 33.6875H37.7294C37.2441 33.6875 36.8505 34.0811 36.8505 34.5664C36.8505 35.0517 37.2441 35.4453 37.7294 35.4453H39.1727C39.6581 35.4453 40.0516 35.0517 40.0516 34.5664C40.0516 34.0811 39.6581 33.6875 39.1727 33.6875Z" fill="#6925A6"/>
<path d="M34.5062 33.6875H33.063C32.5777 33.6875 32.1841 34.0811 32.1841 34.5664C32.1841 35.0517 32.5777 35.4453 33.063 35.4453H34.5062C34.9916 35.4453 35.3851 35.0517 35.3851 34.5664C35.3851 34.0811 34.9916 33.6875 34.5062 33.6875Z" fill="#6925A6"/>
<path d="M23.5111 27.8358H15.0779C14.5926 27.8358 14.199 28.2294 14.199 28.7147C14.199 29.2 14.5926 29.5936 15.0779 29.5936H23.5111C23.9965 29.5936 24.39 29.2 24.39 28.7147C24.39 28.2294 23.9965 27.8358 23.5111 27.8358Z" fill="#6925A6"/>
</svg>
