<svg width="64" height="64" viewBox="0 0 64 64" fill="none" xmlns="http://www.w3.org/2000/svg">
<path d="M43.707 19.293C43.3164 18.9023 42.6836 18.9023 42.293 19.293L32 29.5859L21.707 19.293C21.3164 18.9023 20.6836 18.9023 20.293 19.293C19.9023 19.6836 19.9023 20.3164 20.293 20.707L30.5859 31L20.293 41.293C19.9023 41.6836 19.9023 42.3164 20.293 42.707C20.4883 42.9023 20.7441 43 21 43C21.2559 43 21.5117 42.9023 21.707 42.707L32 32.4141L42.293 42.707C42.4883 42.9023 42.7441 43 43 43C43.2559 43 43.5117 42.9023 43.707 42.707C44.0977 42.3164 44.0977 41.6836 43.707 41.293L33.4141 31L43.707 20.707C44.0977 20.3164 44.0977 19.6836 43.707 19.293Z" fill="white"/>
<path d="M32 0C14.3269 0 0 14.3268 0 32C0 49.6731 14.3269 64 32 64C49.6731 64 64 49.6731 64 32C64 14.3268 49.6731 0 32 0ZM32 62C15.4579 62 2 48.5421 2 32C2 15.4579 15.4579 2 32 2C48.5421 2 62 15.4579 62 32C62 48.5421 48.5421 62 32 62Z" fill="white"/>
</svg>
