<svg width="91" height="75" viewBox="0 0 91 75" fill="none" xmlns="http://www.w3.org/2000/svg">
<path d="M72.4748 34.0729C67.8702 28.4841 65.9524 24.8462 64.4926 16.8657C57.1736 17.3803 47.4466 19.9137 45.7711 21.7356C44.0957 23.5575 25.2742 42.9149 25.2742 42.9149L28.3247 49.4909C40.1813 48.361 54.4639 46.3878 57.0326 46.0121C59.6013 45.6363 68.825 40.6048 72.4748 34.0729Z" fill="white"/>
<path d="M74.4488 32.1251C69.854 26.7957 68.3194 23.3968 67.584 16.5294C67.584 16.5294 78.2313 15.5889 80.2761 20.2344C82.3209 24.8799 74.4488 32.1251 74.4488 32.1251Z" fill="white"/>
<path d="M37.3322 50.844L46.9062 50.1524C51.6436 58.5829 51.3971 61.5921 45.9328 60.6207C40.4686 59.6494 24.6412 56.8035 24.6412 56.8035C35.1075 56.3193 42.2152 56.4626 37.3322 50.844Z" fill="white"/>
<path d="M30.203 34.5466L36.9333 27.5819C33.706 18.4422 31.2967 16.6802 28.4766 21.5418C25.6565 26.4034 17.512 40.5062 17.512 40.5062C24.6664 32.7159 29.1721 27.1191 30.203 34.5466Z" fill="white"/>
<path d="M24.8279 53.9754C26.0981 52.649 21.3591 42.3932 19.7294 42.6876C18.0998 42.982 10.3687 53.5152 9.49986 54.3331C9.49986 54.3331 23.5576 55.3019 24.8279 53.9754Z" fill="white"/>
<path d="M23.1429 52.4624C24.1003 51.5385 21.0115 44.8738 19.828 45.1231C18.6445 45.3724 12.7397 52.631 12.0878 53.2036C12.0878 53.2036 22.1856 53.3862 23.1429 52.4624Z" fill="#6925A6"/>
<rect x="52.4199" y="26" width="2.16007" height="13" rx="1.08004" fill="#6925A6"/>
<rect width="2.16666" height="12.9604" rx="1.08333" transform="matrix(0.0193936 -0.999812 0.99981 0.0195122 47 33.4565)" fill="#6925A6"/>
</svg>
