<svg width="75" height="75" viewBox="0 0 75 75" fill="none" xmlns="http://www.w3.org/2000/svg">
<defs>
<radialGradient id="paint0_radial_146_15" cx="0" cy="0" r="1" gradientUnits="userSpaceOnUse" gradientTransform="translate(20.1916 80.1141) rotate(-90) scale(73.1981 68.0965)">
<stop stop-color="#FFDD55"/>
<stop offset="0.1" stop-color="#FFDD55"/>
<stop offset="0.5" stop-color="#FF543E"/>
<stop offset="1" stop-color="#C837AB"/>
</radialGradient>
<radialGradient id="paint1_radial_146_15" cx="0" cy="0" r="1" gradientUnits="userSpaceOnUse" gradientTransform="translate(-11.8061 5.88868) rotate(78.678) scale(32.7202 134.904)">
<stop stop-color="#3771C8"/>
<stop offset="0.128" stop-color="#3771C8"/>
<stop offset="1" stop-color="#6600FF" stop-opacity="0"/>
</radialGradient>
</defs>
<path d="M37.5181 0.568115C22.0969 0.568115 17.5868 0.584024 16.7102 0.656752C13.5455 0.91982 11.5762 1.41812 9.43085 2.4863C7.77749 3.30732 6.47355 4.25902 5.18665 5.59312C2.84298 8.02607 1.42256 11.0193 0.908374 14.5772C0.658382 16.3045 0.585657 16.6568 0.570885 25.4795C0.565203 28.4204 0.570885 32.2908 0.570885 37.4823C0.570885 52.8914 0.587929 57.3971 0.661791 58.2721C0.917465 61.3516 1.4004 63.2891 2.4231 65.4085C4.37759 69.4653 8.11043 72.5107 12.508 73.6471C14.0307 74.0391 15.7125 74.2551 17.8715 74.3573C18.7862 74.3971 28.1098 74.4255 37.4391 74.4255C46.7684 74.4255 56.0976 74.4141 56.9896 74.3687C59.4896 74.2511 60.9412 74.0562 62.5463 73.6414C66.9723 72.4994 70.637 69.4994 72.6312 65.3857C73.634 63.3175 74.1425 61.3062 74.3726 58.3874C74.4226 57.7511 74.4437 47.605 74.4437 37.4727C74.4437 27.3386 74.4209 17.2113 74.3709 16.5749C74.138 13.609 73.6295 11.6147 72.5943 9.50675C71.7449 7.78118 70.8017 6.49255 69.4324 5.17493C66.9888 2.84084 64.0002 1.42039 60.439 0.906752C58.7135 0.65732 58.3697 0.583456 49.5404 0.568115H37.5181Z" fill="url(#paint0_radial_146_15)"/>
<path d="M37.5181 0.568115C22.0969 0.568115 17.5868 0.584024 16.7102 0.656752C13.5455 0.91982 11.5762 1.41812 9.43085 2.4863C7.77749 3.30732 6.47355 4.25902 5.18665 5.59312C2.84298 8.02607 1.42256 11.0193 0.908374 14.5772C0.658382 16.3045 0.585657 16.6568 0.570885 25.4795C0.565203 28.4204 0.570885 32.2908 0.570885 37.4823C0.570885 52.8914 0.587929 57.3971 0.661791 58.2721C0.917465 61.3516 1.4004 63.2891 2.4231 65.4085C4.37759 69.4653 8.11043 72.5107 12.508 73.6471C14.0307 74.0391 15.7125 74.2551 17.8715 74.3573C18.7862 74.3971 28.1098 74.4255 37.4391 74.4255C46.7684 74.4255 56.0976 74.4141 56.9896 74.3687C59.4896 74.2511 60.9412 74.0562 62.5463 73.6414C66.9723 72.4994 70.637 69.4994 72.6312 65.3857C73.634 63.3175 74.1425 61.3062 74.3726 58.3874C74.4226 57.7511 74.4437 47.605 74.4437 37.4727C74.4437 27.3386 74.4209 17.2113 74.3709 16.5749C74.138 13.609 73.6295 11.6147 72.5943 9.50675C71.7449 7.78118 70.8017 6.49255 69.4324 5.17493C66.9888 2.84084 64.0002 1.42039 60.439 0.906752C58.7135 0.65732 58.3697 0.583456 49.5404 0.568115H37.5181Z" fill="url(#paint1_radial_146_15)"/>
<path d="M37.5007 10.2273C30.0941 10.2273 29.1646 10.2597 26.2556 10.3921C23.3523 10.525 21.3705 10.9847 19.6365 11.6591C17.8428 12.3557 16.3213 13.2875 14.8054 14.804C13.2884 16.3199 12.3566 17.8415 11.6578 19.6347C10.9817 21.3693 10.5214 23.3517 10.3908 26.254C10.2607 29.1631 10.2266 30.0932 10.2266 37.5C10.2266 44.9068 10.2595 45.8335 10.3913 48.7426C10.5248 51.646 10.9845 53.6279 11.6583 55.3619C12.3555 57.1557 13.2873 58.6773 14.8037 60.1932C16.319 61.7103 17.8405 62.6443 19.6331 63.3409C21.3683 64.0154 23.3506 64.475 26.2533 64.608C29.1624 64.7404 30.0913 64.7728 37.4973 64.7728C44.9045 64.7728 45.8312 64.7404 48.7402 64.608C51.6435 64.475 53.6275 64.0154 55.3627 63.3409C57.1558 62.6443 58.6751 61.7103 60.1904 60.1932C61.7074 58.6773 62.6392 57.1557 63.338 55.3625C64.0085 53.6279 64.4687 51.6455 64.605 48.7432C64.7357 45.8341 64.7698 44.9068 64.7698 37.5C64.7698 30.0932 64.7357 29.1637 64.605 26.2546C64.4687 23.3512 64.0085 21.3693 63.338 19.6352C62.6392 17.8415 61.7074 16.3199 60.1904 14.804C58.6734 13.287 57.1564 12.3551 55.361 11.6591C53.6224 10.9847 51.6395 10.525 48.7362 10.3921C45.8272 10.2597 44.9011 10.2273 37.4922 10.2273H37.5007ZM35.0542 15.1421C35.7803 15.1409 36.5905 15.1421 37.5007 15.1421C44.7823 15.1421 45.6454 15.1682 48.5209 15.2989C51.1799 15.4205 52.623 15.8648 53.5843 16.2381C54.857 16.7324 55.7644 17.3233 56.7183 18.2779C57.6729 19.2324 58.2637 20.1415 58.7592 21.4142C59.1325 22.3745 59.5773 23.8176 59.6984 26.4767C59.829 29.3517 59.8574 30.2154 59.8574 37.4938C59.8574 44.7722 59.829 45.6358 59.6984 48.5108C59.5768 51.1699 59.1325 52.6131 58.7592 53.5733C58.2649 54.846 57.6729 55.7523 56.7183 56.7063C55.7638 57.6608 54.8576 58.2517 53.5843 58.746C52.6241 59.121 51.1799 59.5642 48.5209 59.6858C45.6459 59.8165 44.7823 59.8449 37.5007 59.8449C30.2186 59.8449 29.3555 59.8165 26.4806 59.6858C23.8216 59.5631 22.3785 59.1188 21.4166 58.7455C20.1439 58.2512 19.2348 57.6603 18.2803 56.7057C17.3258 55.7512 16.7349 54.8443 16.2394 53.571C15.8662 52.6108 15.4213 51.1676 15.3003 48.5085C15.1696 45.6335 15.1435 44.7699 15.1435 37.487C15.1435 30.204 15.1696 29.3449 15.3003 26.4699C15.4219 23.8108 15.8662 22.3676 16.2394 21.4063C16.7338 20.1335 17.3258 19.2245 18.2803 18.2699C19.2348 17.3154 20.1439 16.7245 21.4166 16.229C22.3779 15.854 23.8216 15.4108 26.4806 15.2887C28.9964 15.175 29.9714 15.1409 35.0542 15.1352V15.1421ZM52.0582 19.6705C50.2515 19.6705 48.7856 21.1347 48.7856 22.9421C48.7856 24.7489 50.2515 26.2148 52.0582 26.2148C53.865 26.2148 55.3309 24.7489 55.3309 22.9421C55.3309 21.1352 53.865 19.6693 52.0582 19.6693V19.6705ZM37.5007 23.4943C29.7663 23.4943 23.4955 29.7654 23.4955 37.5C23.4955 45.2347 29.7663 51.5029 37.5007 51.5029C45.2352 51.5029 51.5037 45.2347 51.5037 37.5C51.5037 29.7654 45.2346 23.4943 37.5002 23.4943H37.5007ZM37.5007 28.4091C42.521 28.4091 46.5914 32.479 46.5914 37.5C46.5914 42.5205 42.521 46.5909 37.5007 46.5909C32.4799 46.5909 28.4101 42.5205 28.4101 37.5C28.4101 32.479 32.4799 28.4091 37.5007 28.4091Z" fill="white"/>

</svg>
