<svg width="75" height="75" viewBox="0 0 75 75" fill="none" xmlns="http://www.w3.org/2000/svg">

<defs>
<linearGradient id="paint0_linear_144_34" x1="37.4844" y1="0" x2="37.4844" y2="74.4377" gradientUnits="userSpaceOnUse">
<stop stop-color="#2AABEE"/>
<stop offset="1" stop-color="#229ED9"/>
</linearGradient>
<clipPath id="clip0_144_34">
<rect width="75" height="75" fill="white"/>
</clipPath>
</defs>
<g clip-path="url(#clip0_144_34)">
<path d="M37.5156 75.0312C58.2349 75.0312 75.0312 58.2349 75.0312 37.5156C75.0312 16.7963 58.2349 0 37.5156 0C16.7963 0 0 16.7963 0 37.5156C0 58.2349 16.7963 75.0312 37.5156 75.0312Z" fill="url(#paint0_linear_144_34)"/>
<path fill-rule="evenodd" clip-rule="evenodd" d="M16.962 37.1097C27.895 32.3616 35.1732 29.2067 38.8279 27.6761C49.2299 23.3341 51.4164 22.5845 52.8221 22.5532C53.1345 22.5532 53.8217 22.6157 54.2902 22.9905C54.6651 23.3029 54.7588 23.709 54.8213 24.0214C54.8837 24.3337 54.9462 24.9897 54.8837 25.4895C54.3215 31.4245 51.885 45.8248 50.6355 52.447C50.1045 55.2583 49.0737 56.1955 48.0741 56.2892C45.8875 56.4766 44.2319 54.8523 42.1391 53.4778C38.8279 51.3225 36.985 49.9793 33.7675 47.8552C30.0503 45.4187 32.4556 44.0755 34.5797 41.8889C35.142 41.3267 44.7317 32.5803 44.9191 31.7994C44.9504 31.7057 44.9504 31.3308 44.7317 31.1434C44.5131 30.956 44.2007 31.0184 43.9508 31.0809C43.6072 31.1434 38.3594 34.6419 28.1449 41.5453C26.6455 42.5761 25.3023 43.0759 24.0841 43.0447C22.7409 43.0135 20.1795 42.295 18.2428 41.6703C15.9 40.9206 14.0258 40.5145 14.182 39.2025C14.2757 38.5153 15.2128 37.8281 16.962 37.1097Z" fill="white"/>
</g>
</svg>
