<svg width="34" height="34" viewBox="0 0 34 34" fill="none" xmlns="http://www.w3.org/2000/svg">
<g clip-path="url(#clip0_145_12)">
<path d="M14.2919 17.5854C18.9633 17.5854 22.7503 13.7984 22.7503 9.12696C22.7503 4.45551 18.9634 0.668457 14.2919 0.668457C9.62039 0.668457 5.83339 4.45546 5.83339 9.1269C5.83339 13.7983 9.62039 17.5854 14.2919 17.5854ZM18.3859 12.4634C18.0011 13.7356 16.3528 14.692 14.3773 14.692C12.4018 14.692 10.7536 13.7356 10.3688 12.4634H18.3859ZM33.7908 26.7512L26.0519 33.2008C25.8268 33.3884 25.4731 33.3724 25.2659 33.1651L21.4129 29.3116C21.1861 29.0847 21.1861 28.7135 21.4129 28.4866L22.2378 27.6617C22.4646 27.4349 22.8359 27.4349 23.0627 27.6617L25.7863 30.3848L32.2972 24.959C32.5437 24.7536 32.9134 24.7872 33.1188 25.0337L33.8655 25.9296C34.0708 26.1761 34.0373 26.5458 33.7908 26.7512ZM20.5053 30.219L21.9728 31.6867C19.97 31.9687 17.4454 32.169 14.2919 32.169C6.13622 32.169 2.14506 30.8364 0.681833 30.1853C0.304278 30.0173 0 29.537 0 29.1238V26.3356C0 22.1575 3.18111 18.6913 7.24028 18.2271C7.36361 18.213 7.54656 18.2657 7.64706 18.3386C9.51861 19.6935 11.8099 20.5021 14.2919 20.5021C16.7738 20.5021 19.0652 19.6935 20.9367 18.3386C21.0373 18.2657 21.2202 18.213 21.3435 18.2271C25.4027 18.6913 28.5838 22.1575 28.5838 26.3356V26.3827L25.8648 28.6484L23.9701 26.7543C23.6174 26.4016 23.1486 26.2073 22.6502 26.2073C22.1517 26.2073 21.6829 26.4016 21.3302 26.7543L20.5053 27.5792C19.7772 28.3072 19.7772 29.491 20.5053 30.219Z" fill="#6925A6"/>
</g>
<defs>
<clipPath id="clip0_145_12">
<rect width="34" height="34" fill="white"/>
</clipPath>
</defs>
</svg>
